<svg width="321" height="158" viewBox="0 0 321 158" fill="none" xmlns="http://www.w3.org/2000/svg">
<path d="M74.8 157.236C71.6418 157.236 68.6498 156.405 65.824 154.743C63.1644 153.247 61.0036 151.169 59.3413 148.509C57.8453 145.684 57.0973 142.692 57.0973 139.533C57.0973 136.375 57.8453 133.466 59.3413 130.807C61.0036 127.981 63.1644 125.82 65.824 124.324C68.6498 122.662 71.6418 121.831 74.8 121.831C77.9582 121.831 80.8671 122.662 83.5267 124.324C86.3524 125.82 88.5133 127.981 90.0093 130.807C91.6716 133.466 92.5027 136.375 92.5027 139.533C92.5027 142.692 91.6716 145.684 90.0093 148.509C88.5133 151.169 86.3524 153.247 83.5267 154.743C80.8671 156.405 77.9582 157.236 74.8 157.236ZM74.8 132.303C71.6418 132.303 68.6498 131.555 65.824 130.059C63.1644 128.396 61.0036 126.236 59.3413 123.576C57.8453 120.75 57.0973 117.758 57.0973 114.6C57.0973 111.442 57.8453 108.533 59.3413 105.873C61.0036 103.048 63.1644 100.887 65.824 99.3907C68.6498 97.7284 71.6418 96.8973 74.8 96.8973C77.9582 96.8973 80.8671 97.7284 83.5267 99.3907C86.3524 100.887 88.5133 103.048 90.0093 105.873C91.6716 108.533 92.5027 111.442 92.5027 114.6C92.5027 117.758 91.6716 120.75 90.0093 123.576C88.5133 126.236 86.3524 128.396 83.5267 130.059C80.8671 131.555 77.9582 132.303 74.8 132.303ZM74.8 107.369C71.6418 107.369 68.6498 106.621 65.824 105.125C63.1644 103.463 61.0036 101.302 59.3413 98.6427C57.8453 95.8169 57.0973 92.8249 57.0973 89.6667C57.0973 86.5084 57.8453 83.5996 59.3413 80.94C61.0036 78.1142 63.1644 75.9533 65.824 74.4573C68.6498 72.7951 71.6418 71.964 74.8 71.964C77.9582 71.964 80.8671 72.7951 83.5267 74.4573C86.3524 75.9533 88.5133 78.1142 90.0093 80.94C91.6716 83.5996 92.5027 86.5084 92.5027 89.6667C92.5027 92.8249 91.6716 95.8169 90.0093 98.6427C88.5133 101.302 86.3524 103.463 83.5267 105.125C80.8671 106.621 77.9582 107.369 74.8 107.369ZM49.8667 82.436C46.7084 82.436 43.7164 81.688 40.8907 80.192C38.2311 78.5298 36.0702 76.3689 34.408 73.7093C32.912 70.8836 32.164 67.8916 32.164 64.7333C32.164 61.5751 32.912 58.6662 34.408 56.0067C36.0702 53.1809 38.2311 51.02 40.8907 49.524C43.7164 47.8618 46.7084 47.0307 49.8667 47.0307C53.0249 47.0307 55.9338 47.8618 58.5933 49.524C61.4191 51.02 63.58 53.1809 65.076 56.0067C66.7382 58.6662 67.5693 61.5751 67.5693 64.7333C67.5693 67.8916 66.7382 70.8836 65.076 73.7093C63.58 76.3689 61.4191 78.5298 58.5933 80.192C55.9338 81.688 53.0249 82.436 49.8667 82.436ZM24.9333 82.436C21.7751 82.436 18.7831 81.688 15.9573 80.192C13.2978 78.5298 11.1369 76.3689 9.47467 73.7093C7.97867 70.8836 7.23067 67.8916 7.23067 64.7333C7.23067 61.5751 7.97867 58.6662 9.47467 56.0067C11.1369 53.1809 13.2978 51.02 15.9573 49.524C18.7831 47.8618 21.7751 47.0307 24.9333 47.0307C28.0916 47.0307 31.0004 47.8618 33.66 49.524C36.4858 51.02 38.6467 53.1809 40.1427 56.0067C41.8049 58.6662 42.636 61.5751 42.636 64.7333C42.636 67.8916 41.8049 70.8836 40.1427 73.7093C38.6467 76.3689 36.4858 78.5298 33.66 80.192C31.0004 81.688 28.0916 82.436 24.9333 82.436ZM24.9333 107.369C21.7751 107.369 18.7831 106.621 15.9573 105.125C13.2978 103.463 11.1369 101.302 9.47467 98.6427C7.97867 95.8169 7.23067 92.8249 7.23067 89.6667C7.23067 86.5084 7.97867 83.5996 9.47467 80.94C11.1369 78.1142 13.2978 75.9533 15.9573 74.4573C18.7831 72.7951 21.7751 71.964 24.9333 71.964C28.0916 71.964 31.0004 72.7951 33.66 74.4573C36.4858 75.9533 38.6467 78.1142 40.1427 80.94C41.8049 83.5996 42.636 86.5084 42.636 89.6667C42.636 92.8249 41.8049 95.8169 40.1427 98.6427C38.6467 101.302 36.4858 103.463 33.66 105.125C31.0004 106.621 28.0916 107.369 24.9333 107.369ZM24.9333 132.303C21.7751 132.303 18.7831 131.555 15.9573 130.059C13.2978 128.396 11.1369 126.236 9.47467 123.576C7.97867 120.75 7.23067 117.758 7.23067 114.6C7.23067 111.442 7.97867 108.533 9.47467 105.873C11.1369 103.048 13.2978 100.887 15.9573 99.3907C18.7831 97.7284 21.7751 96.8973 24.9333 96.8973C28.0916 96.8973 31.0004 97.7284 33.66 99.3907C36.4858 100.887 38.6467 103.048 40.1427 105.873C41.8049 108.533 42.636 111.442 42.636 114.6C42.636 117.758 41.8049 120.75 40.1427 123.576C38.6467 126.236 36.4858 128.396 33.66 130.059C31.0004 131.555 28.0916 132.303 24.9333 132.303ZM24.9333 157.236C21.7751 157.236 18.7831 156.405 15.9573 154.743C13.2978 153.247 11.1369 151.169 9.47467 148.509C7.97867 145.684 7.23067 142.692 7.23067 139.533C7.23067 136.375 7.97867 133.466 9.47467 130.807C11.1369 127.981 13.2978 125.82 15.9573 124.324C18.7831 122.662 21.7751 121.831 24.9333 121.831C28.0916 121.831 31.0004 122.662 33.66 124.324C36.4858 125.82 38.6467 127.981 40.1427 130.807C41.8049 133.466 42.636 136.375 42.636 139.533C42.636 142.692 41.8049 145.684 40.1427 148.509C38.6467 151.169 36.4858 153.247 33.66 154.743C31.0004 156.405 28.0916 157.236 24.9333 157.236ZM144.711 157.236C141.553 157.236 138.561 156.405 135.735 154.743C133.075 153.247 130.914 151.169 129.252 148.509C127.756 145.684 127.008 142.692 127.008 139.533C127.008 136.375 127.756 133.466 129.252 130.807C130.914 127.981 133.075 125.82 135.735 124.324C138.561 122.662 141.553 121.831 144.711 121.831C147.869 121.831 150.778 122.662 153.437 124.324C156.263 125.82 158.424 127.981 159.92 130.807C161.582 133.466 162.413 136.375 162.413 139.533C162.413 142.692 161.582 145.684 159.92 148.509C158.424 151.169 156.263 153.247 153.437 154.743C150.778 156.405 147.869 157.236 144.711 157.236ZM169.644 132.303C166.486 132.303 163.494 131.555 160.668 130.059C158.009 128.396 155.848 126.236 154.185 123.576C152.689 120.75 151.941 117.758 151.941 114.6C151.941 111.442 152.689 108.533 154.185 105.873C155.848 103.048 158.009 100.887 160.668 99.3907C163.494 97.7284 166.486 96.8973 169.644 96.8973C172.802 96.8973 175.711 97.7284 178.371 99.3907C181.197 100.887 183.357 103.048 184.853 105.873C186.516 108.533 187.347 111.442 187.347 114.6C187.347 117.758 186.516 120.75 184.853 123.576C183.357 126.236 181.197 128.396 178.371 130.059C175.711 131.555 172.802 132.303 169.644 132.303ZM169.644 57.5027C166.486 57.5027 163.494 56.7547 160.668 55.2587C158.009 53.5964 155.848 51.4355 154.185 48.776C152.689 45.9502 151.941 42.9582 151.941 39.8C151.941 36.6418 152.689 33.7329 154.185 31.0733C155.848 28.2476 158.009 26.0867 160.668 24.5907C163.494 22.9284 166.486 22.0973 169.644 22.0973C172.802 22.0973 175.711 22.9284 178.371 24.5907C181.197 26.0867 183.357 28.2476 184.853 31.0733C186.516 33.7329 187.347 36.6418 187.347 39.8C187.347 42.9582 186.516 45.9502 184.853 48.776C183.357 51.4355 181.197 53.5964 178.371 55.2587C175.711 56.7547 172.802 57.5027 169.644 57.5027ZM144.711 107.369C141.553 107.369 138.561 106.621 135.735 105.125C133.075 103.463 130.914 101.302 129.252 98.6427C127.756 95.8169 127.008 92.8249 127.008 89.6667C127.008 86.5084 127.756 83.5996 129.252 80.94C130.914 78.1142 133.075 75.9533 135.735 74.4573C138.561 72.7951 141.553 71.964 144.711 71.964C147.869 71.964 150.778 72.7951 153.437 74.4573C156.263 75.9533 158.424 78.1142 159.92 80.94C161.582 83.5996 162.413 86.5084 162.413 89.6667C162.413 92.8249 161.582 95.8169 159.92 98.6427C158.424 101.302 156.263 103.463 153.437 105.125C150.778 106.621 147.869 107.369 144.711 107.369ZM119.777 157.236C116.619 157.236 113.627 156.405 110.801 154.743C108.142 153.247 105.981 151.169 104.319 148.509C102.823 145.684 102.075 142.692 102.075 139.533C102.075 136.375 102.823 133.466 104.319 130.807C105.981 127.981 108.142 125.82 110.801 124.324C113.627 122.662 116.619 121.831 119.777 121.831C122.936 121.831 125.845 122.662 128.504 124.324C131.33 125.82 133.491 127.981 134.987 130.807C136.649 133.466 137.48 136.375 137.48 139.533C137.48 142.692 136.649 145.684 134.987 148.509C133.491 151.169 131.33 153.247 128.504 154.743C125.845 156.405 122.936 157.236 119.777 157.236ZM144.711 57.5027C141.553 57.5027 138.561 56.7547 135.735 55.2587C133.075 53.5964 130.914 51.4355 129.252 48.776C127.756 45.9502 127.008 42.9582 127.008 39.8C127.008 36.6418 127.756 33.7329 129.252 31.0733C130.914 28.2476 133.075 26.0867 135.735 24.5907C138.561 22.9284 141.553 22.0973 144.711 22.0973C147.869 22.0973 150.778 22.9284 153.437 24.5907C156.263 26.0867 158.424 28.2476 159.92 31.0733C161.582 33.7329 162.413 36.6418 162.413 39.8C162.413 42.9582 161.582 45.9502 159.92 48.776C158.424 51.4355 156.263 53.5964 153.437 55.2587C150.778 56.7547 147.869 57.5027 144.711 57.5027ZM119.777 82.436C116.619 82.436 113.627 81.688 110.801 80.192C108.142 78.5298 105.981 76.3689 104.319 73.7093C102.823 70.8836 102.075 67.8916 102.075 64.7333C102.075 61.5751 102.823 58.6662 104.319 56.0067C105.981 53.1809 108.142 51.02 110.801 49.524C113.627 47.8618 116.619 47.0307 119.777 47.0307C122.936 47.0307 125.845 47.8618 128.504 49.524C131.33 51.02 133.491 53.1809 134.987 56.0067C136.649 58.6662 137.48 61.5751 137.48 64.7333C137.48 67.8916 136.649 70.8836 134.987 73.7093C133.491 76.3689 131.33 78.5298 128.504 80.192C125.845 81.688 122.936 82.436 119.777 82.436ZM239.555 107.369C236.397 107.369 233.405 106.621 230.579 105.125C227.919 103.463 225.758 101.302 224.096 98.6427C222.6 95.8169 221.852 92.8249 221.852 89.6667C221.852 86.5084 222.6 83.5996 224.096 80.94C225.758 78.1142 227.919 75.9533 230.579 74.4573C233.405 72.7951 236.397 71.964 239.555 71.964C242.713 71.964 245.622 72.7951 248.281 74.4573C251.107 75.9533 253.268 78.1142 254.764 80.94C256.426 83.5996 257.257 86.5084 257.257 89.6667C257.257 92.8249 256.426 95.8169 254.764 98.6427C253.268 101.302 251.107 103.463 248.281 105.125C245.622 106.621 242.713 107.369 239.555 107.369ZM214.621 57.5027C211.463 57.5027 208.471 56.7547 205.645 55.2587C202.986 53.5964 200.825 51.4355 199.163 48.776C197.667 45.9502 196.919 42.9582 196.919 39.8C196.919 36.6418 197.667 33.7329 199.163 31.0733C200.825 28.2476 202.986 26.0867 205.645 24.5907C208.471 22.9284 211.463 22.0973 214.621 22.0973C217.78 22.0973 220.689 22.9284 223.348 24.5907C226.174 26.0867 228.335 28.2476 229.831 31.0733C231.493 33.7329 232.324 36.6418 232.324 39.8C232.324 42.9582 231.493 45.9502 229.831 48.776C228.335 51.4355 226.174 53.5964 223.348 55.2587C220.689 56.7547 217.78 57.5027 214.621 57.5027ZM214.621 157.236C211.463 157.236 208.471 156.405 205.645 154.743C202.986 153.247 200.825 151.169 199.163 148.509C197.667 145.684 196.919 142.692 196.919 139.533C196.919 136.375 197.667 133.466 199.163 130.807C200.825 127.981 202.986 125.82 205.645 124.324C208.471 122.662 211.463 121.831 214.621 121.831C217.78 121.831 220.689 122.662 223.348 124.324C226.174 125.82 228.335 127.981 229.831 130.807C231.493 133.466 232.324 136.375 232.324 139.533C232.324 142.692 231.493 145.684 229.831 148.509C228.335 151.169 226.174 153.247 223.348 154.743C220.689 156.405 217.78 157.236 214.621 157.236ZM239.555 57.5027C236.397 57.5027 233.405 56.7547 230.579 55.2587C227.919 53.5964 225.758 51.4355 224.096 48.776C222.6 45.9502 221.852 42.9582 221.852 39.8C221.852 36.6418 222.6 33.7329 224.096 31.0733C225.758 28.2476 227.919 26.0867 230.579 24.5907C233.405 22.9284 236.397 22.0973 239.555 22.0973C242.713 22.0973 245.622 22.9284 248.281 24.5907C251.107 26.0867 253.268 28.2476 254.764 31.0733C256.426 33.7329 257.257 36.6418 257.257 39.8C257.257 42.9582 256.426 45.9502 254.764 48.776C253.268 51.4355 251.107 53.5964 248.281 55.2587C245.622 56.7547 242.713 57.5027 239.555 57.5027ZM214.621 82.436C211.463 82.436 208.471 81.688 205.645 80.192C202.986 78.5298 200.825 76.3689 199.163 73.7093C197.667 70.8836 196.919 67.8916 196.919 64.7333C196.919 61.5751 197.667 58.6662 199.163 56.0067C200.825 53.1809 202.986 51.02 205.645 49.524C208.471 47.8618 211.463 47.0307 214.621 47.0307C217.78 47.0307 220.689 47.8618 223.348 49.524C226.174 51.02 228.335 53.1809 229.831 56.0067C231.493 58.6662 232.324 61.5751 232.324 64.7333C232.324 67.8916 231.493 70.8836 229.831 73.7093C228.335 76.3689 226.174 78.5298 223.348 80.192C220.689 81.688 217.78 82.436 214.621 82.436ZM214.621 107.369C211.463 107.369 208.471 106.621 205.645 105.125C202.986 103.463 200.825 101.302 199.163 98.6427C197.667 95.8169 196.919 92.8249 196.919 89.6667C196.919 86.5084 197.667 83.5996 199.163 80.94C200.825 78.1142 202.986 75.9533 205.645 74.4573C208.471 72.7951 211.463 71.964 214.621 71.964C217.78 71.964 220.689 72.7951 223.348 74.4573C226.174 75.9533 228.335 78.1142 229.831 80.94C231.493 83.5996 232.324 86.5084 232.324 89.6667C232.324 92.8249 231.493 95.8169 229.831 98.6427C228.335 101.302 226.174 103.463 223.348 105.125C220.689 106.621 217.78 107.369 214.621 107.369ZM214.621 132.303C211.463 132.303 208.471 131.555 205.645 130.059C202.986 128.396 200.825 126.236 199.163 123.576C197.667 120.75 196.919 117.758 196.919 114.6C196.919 111.442 197.667 108.533 199.163 105.873C200.825 103.048 202.986 100.887 205.645 99.3907C208.471 97.7284 211.463 96.8973 214.621 96.8973C217.78 96.8973 220.689 97.7284 223.348 99.3907C226.174 100.887 228.335 103.048 229.831 105.873C231.493 108.533 232.324 111.442 232.324 114.6C232.324 117.758 231.493 120.75 229.831 123.576C228.335 126.236 226.174 128.396 223.348 130.059C220.689 131.555 217.78 132.303 214.621 132.303ZM284.386 107.369C281.228 107.369 278.236 106.621 275.41 105.125C272.751 103.463 270.59 101.302 268.927 98.6427C267.431 95.8169 266.683 92.8249 266.683 89.6667C266.683 86.5084 267.431 83.5996 268.927 80.94C270.59 78.1142 272.751 75.9533 275.41 74.4573C278.236 72.7951 281.228 71.964 284.386 71.964C287.544 71.964 290.453 72.7951 293.113 74.4573C295.939 75.9533 298.099 78.1142 299.595 80.94C301.258 83.5996 302.089 86.5084 302.089 89.6667C302.089 92.8249 301.258 95.8169 299.595 98.6427C298.099 101.302 295.939 103.463 293.113 105.125C290.453 106.621 287.544 107.369 284.386 107.369ZM284.386 132.303C281.228 132.303 278.236 131.555 275.41 130.059C272.751 128.396 270.59 126.236 268.927 123.576C267.431 120.75 266.683 117.758 266.683 114.6C266.683 111.442 267.431 108.533 268.927 105.873C270.59 103.048 272.751 100.887 275.41 99.3907C278.236 97.7284 281.228 96.8973 284.386 96.8973C287.544 96.8973 290.453 97.7284 293.113 99.3907C295.939 100.887 298.099 103.048 299.595 105.873C301.258 108.533 302.089 111.442 302.089 114.6C302.089 117.758 301.258 120.75 299.595 123.576C298.099 126.236 295.939 128.396 293.113 130.059C290.453 131.555 287.544 132.303 284.386 132.303ZM284.386 157.236C281.228 157.236 278.236 156.405 275.41 154.743C272.751 153.247 270.59 151.169 268.927 148.509C267.431 145.684 266.683 142.692 266.683 139.533C266.683 136.375 267.431 133.466 268.927 130.807C270.59 127.981 272.751 125.82 275.41 124.324C278.236 122.662 281.228 121.831 284.386 121.831C287.544 121.831 290.453 122.662 293.113 124.324C295.939 125.82 298.099 127.981 299.595 130.807C301.258 133.466 302.089 136.375 302.089 139.533C302.089 142.692 301.258 145.684 299.595 148.509C298.099 151.169 295.939 153.247 293.113 154.743C290.453 156.405 287.544 157.236 284.386 157.236ZM284.386 57.5027C281.228 57.5027 278.236 56.7547 275.41 55.2587C272.751 53.5964 270.59 51.4355 268.927 48.776C267.431 45.9502 266.683 42.9582 266.683 39.8C266.683 36.6418 267.431 33.7329 268.927 31.0733C270.59 28.2476 272.751 26.0867 275.41 24.5907C278.236 22.9284 281.228 22.0973 284.386 22.0973C287.544 22.0973 290.453 22.9284 293.113 24.5907C295.939 26.0867 298.099 28.2476 299.595 31.0733C301.258 33.7329 302.089 36.6418 302.089 39.8C302.089 42.9582 301.258 45.9502 299.595 48.776C298.099 51.4355 295.939 53.5964 293.113 55.2587C290.453 56.7547 287.544 57.5027 284.386 57.5027Z" fill="black"/>
</svg>
