<svg width="321" height="172" viewBox="0 0 321 172" fill="none" xmlns="http://www.w3.org/2000/svg">
<path d="M74.8 165.236C71.6418 165.236 68.6498 164.405 65.824 162.743C63.1644 161.247 61.0036 159.169 59.3413 156.509C57.8453 153.684 57.0973 150.692 57.0973 147.533C57.0973 144.375 57.8453 141.466 59.3413 138.807C61.0036 135.981 63.1644 133.82 65.824 132.324C68.6498 130.662 71.6418 129.831 74.8 129.831C77.9582 129.831 80.8671 130.662 83.5267 132.324C86.3524 133.82 88.5133 135.981 90.0093 138.807C91.6716 141.466 92.5027 144.375 92.5027 147.533C92.5027 150.692 91.6716 153.684 90.0093 156.509C88.5133 159.169 86.3524 161.247 83.5267 162.743C80.8671 164.405 77.9582 165.236 74.8 165.236ZM74.8 140.303C71.6418 140.303 68.6498 139.555 65.824 138.059C63.1644 136.396 61.0036 134.236 59.3413 131.576C57.8453 128.75 57.0973 125.758 57.0973 122.6C57.0973 119.442 57.8453 116.533 59.3413 113.873C61.0036 111.048 63.1644 108.887 65.824 107.391C68.6498 105.728 71.6418 104.897 74.8 104.897C77.9582 104.897 80.8671 105.728 83.5267 107.391C86.3524 108.887 88.5133 111.048 90.0093 113.873C91.6716 116.533 92.5027 119.442 92.5027 122.6C92.5027 125.758 91.6716 128.75 90.0093 131.576C88.5133 134.236 86.3524 136.396 83.5267 138.059C80.8671 139.555 77.9582 140.303 74.8 140.303ZM74.8 115.369C71.6418 115.369 68.6498 114.621 65.824 113.125C63.1644 111.463 61.0036 109.302 59.3413 106.643C57.8453 103.817 57.0973 100.825 57.0973 97.6667C57.0973 94.5084 57.8453 91.5996 59.3413 88.94C61.0036 86.1142 63.1644 83.9533 65.824 82.4573C68.6498 80.7951 71.6418 79.964 74.8 79.964C77.9582 79.964 80.8671 80.7951 83.5267 82.4573C86.3524 83.9533 88.5133 86.1142 90.0093 88.94C91.6716 91.5996 92.5027 94.5084 92.5027 97.6667C92.5027 100.825 91.6716 103.817 90.0093 106.643C88.5133 109.302 86.3524 111.463 83.5267 113.125C80.8671 114.621 77.9582 115.369 74.8 115.369ZM49.8667 90.436C46.7084 90.436 43.7164 89.688 40.8907 88.192C38.2311 86.5298 36.0702 84.3689 34.408 81.7093C32.912 78.8836 32.164 75.8916 32.164 72.7333C32.164 69.5751 32.912 66.6662 34.408 64.0067C36.0702 61.1809 38.2311 59.02 40.8907 57.524C43.7164 55.8618 46.7084 55.0307 49.8667 55.0307C53.0249 55.0307 55.9338 55.8618 58.5933 57.524C61.4191 59.02 63.58 61.1809 65.076 64.0067C66.7382 66.6662 67.5693 69.5751 67.5693 72.7333C67.5693 75.8916 66.7382 78.8836 65.076 81.7093C63.58 84.3689 61.4191 86.5298 58.5933 88.192C55.9338 89.688 53.0249 90.436 49.8667 90.436ZM24.9333 90.436C21.7751 90.436 18.7831 89.688 15.9573 88.192C13.2978 86.5298 11.1369 84.3689 9.47467 81.7093C7.97867 78.8836 7.23067 75.8916 7.23067 72.7333C7.23067 69.5751 7.97867 66.6662 9.47467 64.0067C11.1369 61.1809 13.2978 59.02 15.9573 57.524C18.7831 55.8618 21.7751 55.0307 24.9333 55.0307C28.0916 55.0307 31.0004 55.8618 33.66 57.524C36.4858 59.02 38.6467 61.1809 40.1427 64.0067C41.8049 66.6662 42.636 69.5751 42.636 72.7333C42.636 75.8916 41.8049 78.8836 40.1427 81.7093C38.6467 84.3689 36.4858 86.5298 33.66 88.192C31.0004 89.688 28.0916 90.436 24.9333 90.436ZM24.9333 115.369C21.7751 115.369 18.7831 114.621 15.9573 113.125C13.2978 111.463 11.1369 109.302 9.47467 106.643C7.97867 103.817 7.23067 100.825 7.23067 97.6667C7.23067 94.5084 7.97867 91.5996 9.47467 88.94C11.1369 86.1142 13.2978 83.9533 15.9573 82.4573C18.7831 80.7951 21.7751 79.964 24.9333 79.964C28.0916 79.964 31.0004 80.7951 33.66 82.4573C36.4858 83.9533 38.6467 86.1142 40.1427 88.94C41.8049 91.5996 42.636 94.5084 42.636 97.6667C42.636 100.825 41.8049 103.817 40.1427 106.643C38.6467 109.302 36.4858 111.463 33.66 113.125C31.0004 114.621 28.0916 115.369 24.9333 115.369ZM24.9333 140.303C21.7751 140.303 18.7831 139.555 15.9573 138.059C13.2978 136.396 11.1369 134.236 9.47467 131.576C7.97867 128.75 7.23067 125.758 7.23067 122.6C7.23067 119.442 7.97867 116.533 9.47467 113.873C11.1369 111.048 13.2978 108.887 15.9573 107.391C18.7831 105.728 21.7751 104.897 24.9333 104.897C28.0916 104.897 31.0004 105.728 33.66 107.391C36.4858 108.887 38.6467 111.048 40.1427 113.873C41.8049 116.533 42.636 119.442 42.636 122.6C42.636 125.758 41.8049 128.75 40.1427 131.576C38.6467 134.236 36.4858 136.396 33.66 138.059C31.0004 139.555 28.0916 140.303 24.9333 140.303ZM24.9333 165.236C21.7751 165.236 18.7831 164.405 15.9573 162.743C13.2978 161.247 11.1369 159.169 9.47467 156.509C7.97867 153.684 7.23067 150.692 7.23067 147.533C7.23067 144.375 7.97867 141.466 9.47467 138.807C11.1369 135.981 13.2978 133.82 15.9573 132.324C18.7831 130.662 21.7751 129.831 24.9333 129.831C28.0916 129.831 31.0004 130.662 33.66 132.324C36.4858 133.82 38.6467 135.981 40.1427 138.807C41.8049 141.466 42.636 144.375 42.636 147.533C42.636 150.692 41.8049 153.684 40.1427 156.509C38.6467 159.169 36.4858 161.247 33.66 162.743C31.0004 164.405 28.0916 165.236 24.9333 165.236ZM144.711 165.236C141.553 165.236 138.561 164.405 135.735 162.743C133.075 161.247 130.914 159.169 129.252 156.509C127.756 153.684 127.008 150.692 127.008 147.533C127.008 144.375 127.756 141.466 129.252 138.807C130.914 135.981 133.075 133.82 135.735 132.324C138.561 130.662 141.553 129.831 144.711 129.831C147.869 129.831 150.778 130.662 153.437 132.324C156.263 133.82 158.424 135.981 159.92 138.807C161.582 141.466 162.413 144.375 162.413 147.533C162.413 150.692 161.582 153.684 159.92 156.509C158.424 159.169 156.263 161.247 153.437 162.743C150.778 164.405 147.869 165.236 144.711 165.236ZM169.644 140.303C166.486 140.303 163.494 139.555 160.668 138.059C158.009 136.396 155.848 134.236 154.185 131.576C152.689 128.75 151.941 125.758 151.941 122.6C151.941 119.442 152.689 116.533 154.185 113.873C155.848 111.048 158.009 108.887 160.668 107.391C163.494 105.728 166.486 104.897 169.644 104.897C172.802 104.897 175.711 105.728 178.371 107.391C181.197 108.887 183.357 111.048 184.853 113.873C186.516 116.533 187.347 119.442 187.347 122.6C187.347 125.758 186.516 128.75 184.853 131.576C183.357 134.236 181.197 136.396 178.371 138.059C175.711 139.555 172.802 140.303 169.644 140.303ZM169.644 65.5027C166.486 65.5027 163.494 64.7547 160.668 63.2587C158.009 61.5964 155.848 59.4355 154.185 56.776C152.689 53.9502 151.941 50.9582 151.941 47.8C151.941 44.6418 152.689 41.7329 154.185 39.0733C155.848 36.2476 158.009 34.0867 160.668 32.5907C163.494 30.9284 166.486 30.0973 169.644 30.0973C172.802 30.0973 175.711 30.9284 178.371 32.5907C181.197 34.0867 183.357 36.2476 184.853 39.0733C186.516 41.7329 187.347 44.6418 187.347 47.8C187.347 50.9582 186.516 53.9502 184.853 56.776C183.357 59.4355 181.197 61.5964 178.371 63.2587C175.711 64.7547 172.802 65.5027 169.644 65.5027ZM144.711 115.369C141.553 115.369 138.561 114.621 135.735 113.125C133.075 111.463 130.914 109.302 129.252 106.643C127.756 103.817 127.008 100.825 127.008 97.6667C127.008 94.5084 127.756 91.5996 129.252 88.94C130.914 86.1142 133.075 83.9533 135.735 82.4573C138.561 80.7951 141.553 79.964 144.711 79.964C147.869 79.964 150.778 80.7951 153.437 82.4573C156.263 83.9533 158.424 86.1142 159.92 88.94C161.582 91.5996 162.413 94.5084 162.413 97.6667C162.413 100.825 161.582 103.817 159.92 106.643C158.424 109.302 156.263 111.463 153.437 113.125C150.778 114.621 147.869 115.369 144.711 115.369ZM119.777 165.236C116.619 165.236 113.627 164.405 110.801 162.743C108.142 161.247 105.981 159.169 104.319 156.509C102.823 153.684 102.075 150.692 102.075 147.533C102.075 144.375 102.823 141.466 104.319 138.807C105.981 135.981 108.142 133.82 110.801 132.324C113.627 130.662 116.619 129.831 119.777 129.831C122.936 129.831 125.845 130.662 128.504 132.324C131.33 133.82 133.491 135.981 134.987 138.807C136.649 141.466 137.48 144.375 137.48 147.533C137.48 150.692 136.649 153.684 134.987 156.509C133.491 159.169 131.33 161.247 128.504 162.743C125.845 164.405 122.936 165.236 119.777 165.236ZM144.711 65.5027C141.553 65.5027 138.561 64.7547 135.735 63.2587C133.075 61.5964 130.914 59.4355 129.252 56.776C127.756 53.9502 127.008 50.9582 127.008 47.8C127.008 44.6418 127.756 41.7329 129.252 39.0733C130.914 36.2476 133.075 34.0867 135.735 32.5907C138.561 30.9284 141.553 30.0973 144.711 30.0973C147.869 30.0973 150.778 30.9284 153.437 32.5907C156.263 34.0867 158.424 36.2476 159.92 39.0733C161.582 41.7329 162.413 44.6418 162.413 47.8C162.413 50.9582 161.582 53.9502 159.92 56.776C158.424 59.4355 156.263 61.5964 153.437 63.2587C150.778 64.7547 147.869 65.5027 144.711 65.5027ZM119.777 90.436C116.619 90.436 113.627 89.688 110.801 88.192C108.142 86.5298 105.981 84.3689 104.319 81.7093C102.823 78.8836 102.075 75.8916 102.075 72.7333C102.075 69.5751 102.823 66.6662 104.319 64.0067C105.981 61.1809 108.142 59.02 110.801 57.524C113.627 55.8618 116.619 55.0307 119.777 55.0307C122.936 55.0307 125.845 55.8618 128.504 57.524C131.33 59.02 133.491 61.1809 134.987 64.0067C136.649 66.6662 137.48 69.5751 137.48 72.7333C137.48 75.8916 136.649 78.8836 134.987 81.7093C133.491 84.3689 131.33 86.5298 128.504 88.192C125.845 89.688 122.936 90.436 119.777 90.436ZM239.555 115.369C236.397 115.369 233.405 114.621 230.579 113.125C227.919 111.463 225.758 109.302 224.096 106.643C222.6 103.817 221.852 100.825 221.852 97.6667C221.852 94.5084 222.6 91.5996 224.096 88.94C225.758 86.1142 227.919 83.9533 230.579 82.4573C233.405 80.7951 236.397 79.964 239.555 79.964C242.713 79.964 245.622 80.7951 248.281 82.4573C251.107 83.9533 253.268 86.1142 254.764 88.94C256.426 91.5996 257.257 94.5084 257.257 97.6667C257.257 100.825 256.426 103.817 254.764 106.643C253.268 109.302 251.107 111.463 248.281 113.125C245.622 114.621 242.713 115.369 239.555 115.369ZM214.621 65.5027C211.463 65.5027 208.471 64.7547 205.645 63.2587C202.986 61.5964 200.825 59.4355 199.163 56.776C197.667 53.9502 196.919 50.9582 196.919 47.8C196.919 44.6418 197.667 41.7329 199.163 39.0733C200.825 36.2476 202.986 34.0867 205.645 32.5907C208.471 30.9284 211.463 30.0973 214.621 30.0973C217.78 30.0973 220.689 30.9284 223.348 32.5907C226.174 34.0867 228.335 36.2476 229.831 39.0733C231.493 41.7329 232.324 44.6418 232.324 47.8C232.324 50.9582 231.493 53.9502 229.831 56.776C228.335 59.4355 226.174 61.5964 223.348 63.2587C220.689 64.7547 217.78 65.5027 214.621 65.5027ZM214.621 165.236C211.463 165.236 208.471 164.405 205.645 162.743C202.986 161.247 200.825 159.169 199.163 156.509C197.667 153.684 196.919 150.692 196.919 147.533C196.919 144.375 197.667 141.466 199.163 138.807C200.825 135.981 202.986 133.82 205.645 132.324C208.471 130.662 211.463 129.831 214.621 129.831C217.78 129.831 220.689 130.662 223.348 132.324C226.174 133.82 228.335 135.981 229.831 138.807C231.493 141.466 232.324 144.375 232.324 147.533C232.324 150.692 231.493 153.684 229.831 156.509C228.335 159.169 226.174 161.247 223.348 162.743C220.689 164.405 217.78 165.236 214.621 165.236ZM239.555 65.5027C236.397 65.5027 233.405 64.7547 230.579 63.2587C227.919 61.5964 225.758 59.4355 224.096 56.776C222.6 53.9502 221.852 50.9582 221.852 47.8C221.852 44.6418 222.6 41.7329 224.096 39.0733C225.758 36.2476 227.919 34.0867 230.579 32.5907C233.405 30.9284 236.397 30.0973 239.555 30.0973C242.713 30.0973 245.622 30.9284 248.281 32.5907C251.107 34.0867 253.268 36.2476 254.764 39.0733C256.426 41.7329 257.257 44.6418 257.257 47.8C257.257 50.9582 256.426 53.9502 254.764 56.776C253.268 59.4355 251.107 61.5964 248.281 63.2587C245.622 64.7547 242.713 65.5027 239.555 65.5027ZM214.621 90.436C211.463 90.436 208.471 89.688 205.645 88.192C202.986 86.5298 200.825 84.3689 199.163 81.7093C197.667 78.8836 196.919 75.8916 196.919 72.7333C196.919 69.5751 197.667 66.6662 199.163 64.0067C200.825 61.1809 202.986 59.02 205.645 57.524C208.471 55.8618 211.463 55.0307 214.621 55.0307C217.78 55.0307 220.689 55.8618 223.348 57.524C226.174 59.02 228.335 61.1809 229.831 64.0067C231.493 66.6662 232.324 69.5751 232.324 72.7333C232.324 75.8916 231.493 78.8836 229.831 81.7093C228.335 84.3689 226.174 86.5298 223.348 88.192C220.689 89.688 217.78 90.436 214.621 90.436ZM214.621 115.369C211.463 115.369 208.471 114.621 205.645 113.125C202.986 111.463 200.825 109.302 199.163 106.643C197.667 103.817 196.919 100.825 196.919 97.6667C196.919 94.5084 197.667 91.5996 199.163 88.94C200.825 86.1142 202.986 83.9533 205.645 82.4573C208.471 80.7951 211.463 79.964 214.621 79.964C217.78 79.964 220.689 80.7951 223.348 82.4573C226.174 83.9533 228.335 86.1142 229.831 88.94C231.493 91.5996 232.324 94.5084 232.324 97.6667C232.324 100.825 231.493 103.817 229.831 106.643C228.335 109.302 226.174 111.463 223.348 113.125C220.689 114.621 217.78 115.369 214.621 115.369ZM214.621 140.303C211.463 140.303 208.471 139.555 205.645 138.059C202.986 136.396 200.825 134.236 199.163 131.576C197.667 128.75 196.919 125.758 196.919 122.6C196.919 119.442 197.667 116.533 199.163 113.873C200.825 111.048 202.986 108.887 205.645 107.391C208.471 105.728 211.463 104.897 214.621 104.897C217.78 104.897 220.689 105.728 223.348 107.391C226.174 108.887 228.335 111.048 229.831 113.873C231.493 116.533 232.324 119.442 232.324 122.6C232.324 125.758 231.493 128.75 229.831 131.576C228.335 134.236 226.174 136.396 223.348 138.059C220.689 139.555 217.78 140.303 214.621 140.303ZM284.386 115.369C281.228 115.369 278.236 114.621 275.41 113.125C272.751 111.463 270.59 109.302 268.927 106.643C267.431 103.817 266.683 100.825 266.683 97.6667C266.683 94.5084 267.431 91.5996 268.927 88.94C270.59 86.1142 272.751 83.9533 275.41 82.4573C278.236 80.7951 281.228 79.964 284.386 79.964C287.544 79.964 290.453 80.7951 293.113 82.4573C295.939 83.9533 298.099 86.1142 299.595 88.94C301.258 91.5996 302.089 94.5084 302.089 97.6667C302.089 100.825 301.258 103.817 299.595 106.643C298.099 109.302 295.939 111.463 293.113 113.125C290.453 114.621 287.544 115.369 284.386 115.369ZM284.386 140.303C281.228 140.303 278.236 139.555 275.41 138.059C272.751 136.396 270.59 134.236 268.927 131.576C267.431 128.75 266.683 125.758 266.683 122.6C266.683 119.442 267.431 116.533 268.927 113.873C270.59 111.048 272.751 108.887 275.41 107.391C278.236 105.728 281.228 104.897 284.386 104.897C287.544 104.897 290.453 105.728 293.113 107.391C295.939 108.887 298.099 111.048 299.595 113.873C301.258 116.533 302.089 119.442 302.089 122.6C302.089 125.758 301.258 128.75 299.595 131.576C298.099 134.236 295.939 136.396 293.113 138.059C290.453 139.555 287.544 140.303 284.386 140.303ZM284.386 165.236C281.228 165.236 278.236 164.405 275.41 162.743C272.751 161.247 270.59 159.169 268.927 156.509C267.431 153.684 266.683 150.692 266.683 147.533C266.683 144.375 267.431 141.466 268.927 138.807C270.59 135.981 272.751 133.82 275.41 132.324C278.236 130.662 281.228 129.831 284.386 129.831C287.544 129.831 290.453 130.662 293.113 132.324C295.939 133.82 298.099 135.981 299.595 138.807C301.258 141.466 302.089 144.375 302.089 147.533C302.089 150.692 301.258 153.684 299.595 156.509C298.099 159.169 295.939 161.247 293.113 162.743C290.453 164.405 287.544 165.236 284.386 165.236ZM284.386 65.5027C281.228 65.5027 278.236 64.7547 275.41 63.2587C272.751 61.5964 270.59 59.4355 268.927 56.776C267.431 53.9502 266.683 50.9582 266.683 47.8C266.683 44.6418 267.431 41.7329 268.927 39.0733C270.59 36.2476 272.751 34.0867 275.41 32.5907C278.236 30.9284 281.228 30.0973 284.386 30.0973C287.544 30.0973 290.453 30.9284 293.113 32.5907C295.939 34.0867 298.099 36.2476 299.595 39.0733C301.258 41.7329 302.089 44.6418 302.089 47.8C302.089 50.9582 301.258 53.9502 299.595 56.776C298.099 59.4355 295.939 61.5964 293.113 63.2587C290.453 64.7547 287.544 65.5027 284.386 65.5027Z" fill="white"/>
</svg>
