<svg width="363" height="174" viewBox="0 0 363 174" fill="none" xmlns="http://www.w3.org/2000/svg">
<path d="M87.2269 174C82.8023 174 78.6938 172.949 74.9014 170.848C71.3196 168.746 68.4752 165.909 66.3683 162.337C64.2614 158.554 63.2079 154.457 63.2079 150.043C63.2079 145.63 64.2614 141.638 66.3683 138.065C68.4752 134.283 71.3196 131.341 74.9014 129.239C78.6938 127.138 82.8023 126.087 87.2269 126.087C91.6514 126.087 95.6546 127.138 99.2364 129.239C103.029 131.341 105.979 134.283 108.085 138.065C110.192 141.638 111.246 145.63 111.246 150.043C111.246 154.457 110.192 158.554 108.085 162.337C105.979 165.909 103.029 168.746 99.2364 170.848C95.6546 172.949 91.6514 174 87.2269 174ZM87.2269 142.478C82.8023 142.478 78.6938 141.428 74.9014 139.326C71.3196 137.225 68.4752 134.388 66.3683 130.815C64.2614 127.033 63.2079 122.935 63.2079 118.522C63.2079 114.109 64.2614 110.116 66.3683 106.543C68.4752 102.761 71.3196 99.8189 74.9014 97.7174C78.6938 95.616 82.8023 94.5652 87.2269 94.5652C91.6514 94.5652 95.6546 95.616 99.2364 97.7174C103.029 99.8189 105.979 102.761 108.085 106.543C110.192 110.116 111.246 114.109 111.246 118.522C111.246 122.935 110.192 127.033 108.085 130.815C105.979 134.388 103.029 137.225 99.2364 139.326C95.6546 141.428 91.6514 142.478 87.2269 142.478ZM87.2269 110.957C82.8023 110.957 78.6938 109.906 74.9014 107.804C71.3196 105.703 68.4752 102.866 66.3683 99.2935C64.2614 95.5109 63.2079 91.4131 63.2079 87C63.2079 82.587 64.2614 78.5942 66.3683 75.0217C68.4752 71.2391 71.3196 68.2971 74.9014 66.1957C78.6938 64.0942 82.8023 63.0435 87.2269 63.0435C91.6514 63.0435 95.6546 64.0942 99.2364 66.1957C103.029 68.2971 105.979 71.2391 108.085 75.0217C110.192 78.5942 111.246 82.587 111.246 87C111.246 91.4131 110.192 95.5109 108.085 99.2935C105.979 102.866 103.029 105.703 99.2364 107.804C95.6546 109.906 91.6514 110.957 87.2269 110.957ZM87.2269 79.4348C82.8023 79.4348 78.6938 78.3841 74.9014 76.2826C71.3196 74.1812 68.4752 71.3442 66.3683 67.7717C64.2614 63.9891 63.2079 59.8913 63.2079 55.4783C63.2079 51.0652 64.2614 47.0725 66.3683 43.5C68.4752 39.7174 71.3196 36.7754 74.9014 34.6739C78.6938 32.5725 82.8023 31.5217 87.2269 31.5217C91.6514 31.5217 95.6546 32.5725 99.2364 34.6739C103.029 36.7754 105.979 39.7174 108.085 43.5C110.192 47.0725 111.246 51.0652 111.246 55.4783C111.246 59.8913 110.192 63.9891 108.085 67.7717C105.979 71.3442 103.029 74.1812 99.2364 76.2826C95.6546 78.3841 91.6514 79.4348 87.2269 79.4348ZM55.6229 47.913C51.1984 47.913 47.0899 46.8623 43.2974 44.7609C39.7156 42.6594 36.8713 39.8225 34.7643 36.25C32.6574 32.4674 31.6039 28.3696 31.6039 23.9565C31.6039 19.5435 32.6574 15.5507 34.7643 11.9783C36.8713 8.19565 39.7156 5.25362 43.2974 3.15217C47.0899 1.05072 51.1984 0 55.6229 0C60.0475 0 64.0507 1.05072 67.6324 3.15217C71.4249 5.25362 74.3746 8.19565 76.4815 11.9783C78.5885 15.5507 79.6419 19.5435 79.6419 23.9565C79.6419 28.3696 78.5885 32.4674 76.4815 36.25C74.3746 39.8225 71.4249 42.6594 67.6324 44.7609C64.0507 46.8623 60.0475 47.913 55.6229 47.913ZM24.019 47.913C19.5944 47.913 15.4859 46.8623 11.6935 44.7609C8.11168 42.6594 5.26732 39.8225 3.16039 36.25C1.05346 32.4674 0 28.3696 0 23.9565C0 19.5435 1.05346 15.5507 3.16039 11.9783C5.26732 8.19565 8.11168 5.25362 11.6935 3.15217C15.4859 1.05072 19.5944 0 24.019 0C28.4436 0 32.4467 1.05072 36.0285 3.15217C39.821 5.25362 42.7707 8.19565 44.8776 11.9783C46.9845 15.5507 48.038 19.5435 48.038 23.9565C48.038 28.3696 46.9845 32.4674 44.8776 36.25C42.7707 39.8225 39.821 42.6594 36.0285 44.7609C32.4467 46.8623 28.4436 47.913 24.019 47.913ZM24.019 79.4348C19.5944 79.4348 15.4859 78.3841 11.6935 76.2826C8.11168 74.1812 5.26732 71.3442 3.16039 67.7717C1.05346 63.9891 0 59.8913 0 55.4783C0 51.0652 1.05346 47.0725 3.16039 43.5C5.26732 39.7174 8.11168 36.7754 11.6935 34.6739C15.4859 32.5725 19.5944 31.5217 24.019 31.5217C28.4436 31.5217 32.4467 32.5725 36.0285 34.6739C39.821 36.7754 42.7707 39.7174 44.8776 43.5C46.9845 47.0725 48.038 51.0652 48.038 55.4783C48.038 59.8913 46.9845 63.9891 44.8776 67.7717C42.7707 71.3442 39.821 74.1812 36.0285 76.2826C32.4467 78.3841 28.4436 79.4348 24.019 79.4348ZM24.019 110.957C19.5944 110.957 15.4859 109.906 11.6935 107.804C8.11168 105.703 5.26732 102.866 3.16039 99.2935C1.05346 95.5109 0 91.4131 0 87C0 82.587 1.05346 78.5942 3.16039 75.0217C5.26732 71.2391 8.11168 68.2971 11.6935 66.1957C15.4859 64.0942 19.5944 63.0435 24.019 63.0435C28.4436 63.0435 32.4467 64.0942 36.0285 66.1957C39.821 68.2971 42.7707 71.2391 44.8776 75.0217C46.9845 78.5942 48.038 82.587 48.038 87C48.038 91.4131 46.9845 95.5109 44.8776 99.2935C42.7707 102.866 39.821 105.703 36.0285 107.804C32.4467 109.906 28.4436 110.957 24.019 110.957ZM24.019 142.478C19.5944 142.478 15.4859 141.428 11.6935 139.326C8.11168 137.225 5.26732 134.388 3.16039 130.815C1.05346 127.033 0 122.935 0 118.522C0 114.109 1.05346 110.116 3.16039 106.543C5.26732 102.761 8.11168 99.8189 11.6935 97.7174C15.4859 95.616 19.5944 94.5652 24.019 94.5652C28.4436 94.5652 32.4467 95.616 36.0285 97.7174C39.821 99.8189 42.7707 102.761 44.8776 106.543C46.9845 110.116 48.038 114.109 48.038 118.522C48.038 122.935 46.9845 127.033 44.8776 130.815C42.7707 134.388 39.821 137.225 36.0285 139.326C32.4467 141.428 28.4436 142.478 24.019 142.478ZM24.019 174C19.5944 174 15.4859 172.949 11.6935 170.848C8.11168 168.746 5.26732 165.909 3.16039 162.337C1.05346 158.554 0 154.457 0 150.043C0 145.63 1.05346 141.638 3.16039 138.065C5.26732 134.283 8.11168 131.341 11.6935 129.239C15.4859 127.138 19.5944 126.087 24.019 126.087C28.4436 126.087 32.4467 127.138 36.0285 129.239C39.821 131.341 42.7707 134.283 44.8776 138.065C46.9845 141.638 48.038 145.63 48.038 150.043C48.038 154.457 46.9845 158.554 44.8776 162.337C42.7707 165.909 39.821 168.746 36.0285 170.848C32.4467 172.949 28.4436 174 24.019 174Z" fill="white"/>
<path d="M181.844 174C177.419 174 173.311 172.949 169.518 170.848C165.936 168.746 163.092 165.909 160.985 162.337C158.878 158.554 157.825 154.457 157.825 150.043C157.825 145.63 158.878 141.638 160.985 138.065C163.092 134.283 165.936 131.341 169.518 129.239C173.311 127.138 177.419 126.087 181.844 126.087C186.268 126.087 190.271 127.138 193.853 129.239C197.646 131.341 200.595 134.283 202.702 138.065C204.809 141.638 205.863 145.63 205.863 150.043C205.863 154.457 204.809 158.554 202.702 162.337C200.595 165.909 197.646 168.746 193.853 170.848C190.271 172.949 186.268 174 181.844 174ZM213.448 142.478C209.023 142.478 204.915 141.428 201.122 139.326C197.54 137.225 194.696 134.388 192.589 130.815C190.482 127.033 189.429 122.935 189.429 118.522C189.429 114.109 190.482 110.116 192.589 106.543C194.696 102.761 197.54 99.8189 201.122 97.7174C204.915 95.616 209.023 94.5652 213.448 94.5652C217.872 94.5652 221.875 95.616 225.457 97.7174C229.25 99.8189 232.199 102.761 234.306 106.543C236.413 110.116 237.467 114.109 237.467 118.522C237.467 122.935 236.413 127.033 234.306 130.815C232.199 134.388 229.25 137.225 225.457 139.326C221.875 141.428 217.872 142.478 213.448 142.478ZM213.448 47.913C209.023 47.913 204.915 46.8623 201.122 44.7609C197.54 42.6594 194.696 39.8225 192.589 36.25C190.482 32.4674 189.429 28.3696 189.429 23.9565C189.429 19.5435 190.482 15.5507 192.589 11.9783C194.696 8.19565 197.54 5.25362 201.122 3.15217C204.915 1.05072 209.023 0 213.448 0C217.872 0 221.875 1.05072 225.457 3.15217C229.25 5.25362 232.199 8.19565 234.306 11.9783C236.413 15.5507 237.467 19.5435 237.467 23.9565C237.467 28.3696 236.413 32.4674 234.306 36.25C232.199 39.8225 229.25 42.6594 225.457 44.7609C221.875 46.8623 217.872 47.913 213.448 47.913ZM181.844 110.957C177.419 110.957 173.311 109.906 169.518 107.804C165.936 105.703 163.092 102.866 160.985 99.2935C158.878 95.5109 157.825 91.4131 157.825 87C157.825 82.587 158.878 78.5942 160.985 75.0217C163.092 71.2391 165.936 68.2971 169.518 66.1957C173.311 64.0942 177.419 63.0435 181.844 63.0435C186.268 63.0435 190.271 64.0942 193.853 66.1957C197.646 68.2971 200.595 71.2391 202.702 75.0217C204.809 78.5942 205.863 82.587 205.863 87C205.863 91.4131 204.809 95.5109 202.702 99.2935C200.595 102.866 197.646 105.703 193.853 107.804C190.271 109.906 186.268 110.957 181.844 110.957ZM150.24 174C145.815 174 141.707 172.949 137.914 170.848C134.332 168.746 131.488 165.909 129.381 162.337C127.274 158.554 126.221 154.457 126.221 150.043C126.221 145.63 127.274 141.638 129.381 138.065C131.488 134.283 134.332 131.341 137.914 129.239C141.707 127.138 145.815 126.087 150.24 126.087C154.664 126.087 158.667 127.138 162.249 129.239C166.042 131.341 168.991 134.283 171.098 138.065C173.205 141.638 174.259 145.63 174.259 150.043C174.259 154.457 173.205 158.554 171.098 162.337C168.991 165.909 166.042 168.746 162.249 170.848C158.667 172.949 154.664 174 150.24 174ZM181.844 47.913C177.419 47.913 173.311 46.8623 169.518 44.7609C165.936 42.6594 163.092 39.8225 160.985 36.25C158.878 32.4674 157.825 28.3696 157.825 23.9565C157.825 19.5435 158.878 15.5507 160.985 11.9783C163.092 8.19565 165.936 5.25362 169.518 3.15217C173.311 1.05072 177.419 0 181.844 0C186.268 0 190.271 1.05072 193.853 3.15217C197.646 5.25362 200.595 8.19565 202.702 11.9783C204.809 15.5507 205.863 19.5435 205.863 23.9565C205.863 28.3696 204.809 32.4674 202.702 36.25C200.595 39.8225 197.646 42.6594 193.853 44.7609C190.271 46.8623 186.268 47.913 181.844 47.913ZM150.24 79.4348C145.815 79.4348 141.707 78.3841 137.914 76.2826C134.332 74.1812 131.488 71.3442 129.381 67.7717C127.274 63.9891 126.221 59.8913 126.221 55.4783C126.221 51.0652 127.274 47.0725 129.381 43.5C131.488 39.7174 134.332 36.7754 137.914 34.6739C141.707 32.5725 145.815 31.5217 150.24 31.5217C154.664 31.5217 158.667 32.5725 162.249 34.6739C166.042 36.7754 168.991 39.7174 171.098 43.5C173.205 47.0725 174.259 51.0652 174.259 55.4783C174.259 59.8913 173.205 63.9891 171.098 67.7717C168.991 71.3442 166.042 74.1812 162.249 76.2826C158.667 78.3841 154.664 79.4348 150.24 79.4348Z" fill="white"/>
<path d="M339.111 110.957C334.715 110.957 330.633 109.906 326.865 107.804C323.306 105.703 320.48 102.866 318.386 99.2935C316.293 95.5109 315.246 91.4131 315.246 87C315.246 82.587 316.293 78.5942 318.386 75.0217C320.48 71.2391 323.306 68.2971 326.865 66.1957C330.633 64.0942 334.715 63.0435 339.111 63.0435C343.507 63.0435 347.485 64.0942 351.044 66.1957C354.812 68.2971 357.743 71.2391 359.836 75.0217C361.929 78.5942 362.976 82.587 362.976 87C362.976 91.4131 361.929 95.5109 359.836 99.2935C357.743 102.866 354.812 105.703 351.044 107.804C347.485 109.906 343.507 110.957 339.111 110.957ZM339.111 47.913C334.715 47.913 330.633 46.8623 326.865 44.7609C323.306 42.6594 320.48 39.8225 318.386 36.25C316.293 32.4674 315.246 28.3696 315.246 23.9565C315.246 19.5435 316.293 15.5507 318.386 11.9783C320.48 8.19565 323.306 5.25362 326.865 3.15217C330.633 1.05072 334.715 0 339.111 0C343.507 0 347.485 1.05072 351.044 3.15217C354.812 5.25362 357.743 8.19565 359.836 11.9783C361.929 15.5507 362.976 19.5435 362.976 23.9565C362.976 28.3696 361.929 32.4674 359.836 36.25C357.743 39.8225 354.812 42.6594 351.044 44.7609C347.485 46.8623 343.507 47.913 339.111 47.913ZM276.308 142.478C271.912 142.478 267.83 141.428 264.062 139.326C260.503 137.225 257.677 134.388 255.583 130.815C253.49 127.033 252.443 122.935 252.443 118.522C252.443 114.109 253.49 110.116 255.583 106.543C257.677 102.761 260.503 99.8189 264.062 97.7174C267.83 95.616 271.912 94.5652 276.308 94.5652C280.705 94.5652 284.682 95.616 288.241 97.7174C292.009 99.8189 294.94 102.761 297.033 106.543C299.127 110.116 300.173 114.109 300.173 118.522C300.173 122.935 299.127 127.033 297.033 130.815C294.94 134.388 292.009 137.225 288.241 139.326C284.682 141.428 280.705 142.478 276.308 142.478ZM276.308 110.957C271.912 110.957 267.83 109.906 264.062 107.804C260.503 105.703 257.677 102.866 255.583 99.2935C253.49 95.5109 252.443 91.4131 252.443 87C252.443 82.587 253.49 78.5942 255.583 75.0217C257.677 71.2391 260.503 68.2971 264.062 66.1957C267.83 64.0942 271.912 63.0435 276.308 63.0435C280.705 63.0435 284.682 64.0942 288.241 66.1957C292.009 68.2971 294.94 71.2391 297.033 75.0217C299.127 78.5942 300.173 82.587 300.173 87C300.173 91.4131 299.127 95.5109 297.033 99.2935C294.94 102.866 292.009 105.703 288.241 107.804C284.682 109.906 280.705 110.957 276.308 110.957ZM276.308 79.4348C271.912 79.4348 267.83 78.3841 264.062 76.2826C260.503 74.1812 257.677 71.3442 255.583 67.7717C253.49 63.9891 252.443 59.8913 252.443 55.4783C252.443 51.0652 253.49 47.0725 255.583 43.5C257.677 39.7174 260.503 36.7754 264.062 34.6739C267.83 32.5725 271.912 31.5217 276.308 31.5217C280.705 31.5217 284.682 32.5725 288.241 34.6739C292.009 36.7754 294.94 39.7174 297.033 43.5C299.127 47.0725 300.173 51.0652 300.173 55.4783C300.173 59.8913 299.127 63.9891 297.033 67.7717C294.94 71.3442 292.009 74.1812 288.241 76.2826C284.682 78.3841 280.705 79.4348 276.308 79.4348ZM307.71 47.913C303.314 47.913 299.231 46.8623 295.463 44.7609C291.904 42.6594 289.078 39.8225 286.985 36.25C284.891 32.4674 283.845 28.3696 283.845 23.9565C283.845 19.5435 284.891 15.5507 286.985 11.9783C289.078 8.19565 291.904 5.25362 295.463 3.15217C299.231 1.05072 303.314 0 307.71 0C312.106 0 316.083 1.05072 319.642 3.15217C323.41 5.25362 326.341 8.19565 328.435 11.9783C330.528 15.5507 331.575 19.5435 331.575 23.9565C331.575 28.3696 330.528 32.4674 328.435 36.25C326.341 39.8225 323.41 42.6594 319.642 44.7609C316.083 46.8623 312.106 47.913 307.71 47.913ZM276.308 174C271.912 174 267.83 172.949 264.062 170.848C260.503 168.746 257.677 165.909 255.583 162.337C253.49 158.554 252.443 154.457 252.443 150.043C252.443 145.63 253.49 141.638 255.583 138.065C257.677 134.283 260.503 131.341 264.062 129.239C267.83 127.138 271.912 126.087 276.308 126.087C280.705 126.087 284.682 127.138 288.241 129.239C292.009 131.341 294.94 134.283 297.033 138.065C299.127 141.638 300.173 145.63 300.173 150.043C300.173 154.457 299.127 158.554 297.033 162.337C294.94 165.909 292.009 168.746 288.241 170.848C284.682 172.949 280.705 174 276.308 174ZM276.308 47.913C271.912 47.913 267.83 46.8623 264.062 44.7609C260.503 42.6594 257.677 39.8225 255.583 36.25C253.49 32.4674 252.443 28.3696 252.443 23.9565C252.443 19.5435 253.49 15.5507 255.583 11.9783C257.677 8.19565 260.503 5.25362 264.062 3.15217C267.83 1.05072 271.912 0 276.308 0C280.705 0 284.682 1.05072 288.241 3.15217C292.009 5.25362 294.94 8.19565 297.033 11.9783C299.127 15.5507 300.173 19.5435 300.173 23.9565C300.173 28.3696 299.127 32.4674 297.033 36.25C294.94 39.8225 292.009 42.6594 288.241 44.7609C284.682 46.8623 280.705 47.913 276.308 47.913ZM307.71 110.957C303.314 110.957 299.231 109.906 295.463 107.804C291.904 105.703 289.078 102.866 286.985 99.2935C284.891 95.5109 283.845 91.4131 283.845 87C283.845 82.587 284.891 78.5942 286.985 75.0217C289.078 71.2391 291.904 68.2971 295.463 66.1957C299.231 64.0942 303.314 63.0435 307.71 63.0435C312.106 63.0435 316.083 64.0942 319.642 66.1957C323.41 68.2971 326.341 71.2391 328.435 75.0217C330.528 78.5942 331.575 82.587 331.575 87C331.575 91.4131 330.528 95.5109 328.435 99.2935C326.341 102.866 323.41 105.703 319.642 107.804C316.083 109.906 312.106 110.957 307.71 110.957Z" fill="white"/>
</svg>
