<svg width="2000" height="174" viewBox="0 0 2000 174" fill="none" xmlns="http://www.w3.org/2000/svg">
<path d="M1944.63 173.643C1940.23 173.643 1936.14 172.595 1932.37 170.498C1928.8 168.4 1925.97 165.569 1923.87 162.004C1921.78 158.229 1920.73 154.14 1920.73 149.736C1920.73 145.332 1921.78 141.347 1923.87 137.782C1925.97 134.007 1928.8 131.071 1932.37 128.974C1936.14 126.877 1940.23 125.828 1944.63 125.828C1949.04 125.828 1953.02 126.877 1956.59 128.974C1960.36 131.071 1963.3 134.007 1965.4 137.782C1967.49 141.347 1968.54 145.332 1968.54 149.736C1968.54 154.14 1967.49 158.229 1965.4 162.004C1963.3 165.569 1960.36 168.4 1956.59 170.498C1953.02 172.595 1949.04 173.643 1944.63 173.643ZM1976.09 142.186C1971.69 142.186 1967.6 141.138 1963.82 139.04C1960.26 136.943 1957.43 134.112 1955.33 130.547C1953.23 126.772 1952.18 122.683 1952.18 118.279C1952.18 113.875 1953.23 109.89 1955.33 106.325C1957.43 102.55 1960.26 99.6142 1963.82 97.5171C1967.6 95.4199 1971.69 94.3714 1976.09 94.3714C1980.5 94.3714 1984.48 95.4199 1988.04 97.5171C1991.82 99.6142 1994.76 102.55 1996.85 106.325C1998.95 109.89 2000 113.875 2000 118.279C2000 122.683 1998.95 126.772 1996.85 130.547C1994.76 134.112 1991.82 136.943 1988.04 139.04C1984.48 141.138 1980.5 142.186 1976.09 142.186ZM1976.09 47.8148C1971.69 47.8148 1967.6 46.7663 1963.82 44.6691C1960.26 42.572 1957.43 39.7408 1955.33 36.1757C1953.23 32.4008 1952.18 28.3114 1952.18 23.9074C1952.18 19.5034 1953.23 15.5188 1955.33 11.9537C1957.43 8.17884 1960.26 5.24285 1963.82 3.14571C1967.6 1.04857 1971.69 0 1976.09 0C1980.5 0 1984.48 1.04857 1988.04 3.14571C1991.82 5.24285 1994.76 8.17884 1996.85 11.9537C1998.95 15.5188 2000 19.5034 2000 23.9074C2000 28.3114 1998.95 32.4008 1996.85 36.1757C1994.76 39.7408 1991.82 42.572 1988.04 44.6691C1984.48 46.7663 1980.5 47.8148 1976.09 47.8148ZM1944.63 110.729C1940.23 110.729 1936.14 109.68 1932.37 107.583C1928.8 105.486 1925.97 102.655 1923.87 99.0899C1921.78 95.3151 1920.73 91.2257 1920.73 86.8217C1920.73 82.4177 1921.78 78.4331 1923.87 74.8679C1925.97 71.0931 1928.8 68.1571 1932.37 66.06C1936.14 63.9628 1940.23 62.9143 1944.63 62.9143C1949.04 62.9143 1953.02 63.9628 1956.59 66.06C1960.36 68.1571 1963.3 71.0931 1965.4 74.8679C1967.49 78.4331 1968.54 82.4177 1968.54 86.8217C1968.54 91.2257 1967.49 95.3151 1965.4 99.0899C1963.3 102.655 1960.36 105.486 1956.59 107.583C1953.02 109.68 1949.04 110.729 1944.63 110.729ZM1913.18 173.643C1908.77 173.643 1904.68 172.595 1900.91 170.498C1897.34 168.4 1894.51 165.569 1892.42 162.004C1890.32 158.229 1889.27 154.14 1889.27 149.736C1889.27 145.332 1890.32 141.347 1892.42 137.782C1894.51 134.007 1897.34 131.071 1900.91 128.974C1904.68 126.877 1908.77 125.828 1913.18 125.828C1917.58 125.828 1921.57 126.877 1925.13 128.974C1928.91 131.071 1931.84 134.007 1933.94 137.782C1936.04 141.347 1937.08 145.332 1937.08 149.736C1937.08 154.14 1936.04 158.229 1933.94 162.004C1931.84 165.569 1928.91 168.4 1925.13 170.498C1921.57 172.595 1917.58 173.643 1913.18 173.643ZM1944.63 47.8148C1940.23 47.8148 1936.14 46.7663 1932.37 44.6691C1928.8 42.572 1925.97 39.7408 1923.87 36.1757C1921.78 32.4008 1920.73 28.3114 1920.73 23.9074C1920.73 19.5034 1921.78 15.5188 1923.87 11.9537C1925.97 8.17884 1928.8 5.24285 1932.37 3.14571C1936.14 1.04857 1940.23 0 1944.63 0C1949.04 0 1953.02 1.04857 1956.59 3.14571C1960.36 5.24285 1963.3 8.17884 1965.4 11.9537C1967.49 15.5188 1968.54 19.5034 1968.54 23.9074C1968.54 28.3114 1967.49 32.4008 1965.4 36.1757C1963.3 39.7408 1960.36 42.572 1956.59 44.6691C1953.02 46.7663 1949.04 47.8148 1944.63 47.8148ZM1913.18 79.2719C1908.77 79.2719 1904.68 78.2234 1900.91 76.1262C1897.34 74.0291 1894.51 71.1979 1892.42 67.6328C1890.32 63.8579 1889.27 59.7685 1889.27 55.3645C1889.27 50.9605 1890.32 46.976 1892.42 43.4108C1894.51 39.636 1897.34 36.7 1900.91 34.6028C1904.68 32.5057 1908.77 31.4571 1913.18 31.4571C1917.58 31.4571 1921.57 32.5057 1925.13 34.6028C1928.91 36.7 1931.84 39.636 1933.94 43.4108C1936.04 46.976 1937.08 50.9605 1937.08 55.3645C1937.08 59.7685 1936.04 63.8579 1933.94 67.6328C1931.84 71.1979 1928.91 74.0291 1925.13 76.1262C1921.57 78.2234 1917.58 79.2719 1913.18 79.2719Z" fill="white"/>
<path d="M1850.14 173.643C1845.74 173.643 1841.65 172.595 1837.87 170.498C1834.31 168.4 1831.48 165.569 1829.38 162.004C1827.28 158.229 1826.23 154.14 1826.23 149.736C1826.23 145.332 1827.28 141.347 1829.38 137.782C1831.48 134.007 1834.31 131.071 1837.87 128.974C1841.65 126.877 1845.74 125.828 1850.14 125.828C1854.54 125.828 1858.53 126.877 1862.09 128.974C1865.87 131.071 1868.8 134.007 1870.9 137.782C1873 141.347 1874.05 145.332 1874.05 149.736C1874.05 154.14 1873 158.229 1870.9 162.004C1868.8 165.569 1865.87 168.4 1862.09 170.498C1858.53 172.595 1854.54 173.643 1850.14 173.643ZM1850.14 142.186C1845.74 142.186 1841.65 141.138 1837.87 139.04C1834.31 136.943 1831.48 134.112 1829.38 130.547C1827.28 126.772 1826.23 122.683 1826.23 118.279C1826.23 113.875 1827.28 109.89 1829.38 106.325C1831.48 102.55 1834.31 99.6142 1837.87 97.5171C1841.65 95.4199 1845.74 94.3714 1850.14 94.3714C1854.54 94.3714 1858.53 95.4199 1862.09 97.5171C1865.87 99.6142 1868.8 102.55 1870.9 106.325C1873 109.89 1874.05 113.875 1874.05 118.279C1874.05 122.683 1873 126.772 1870.9 130.547C1868.8 134.112 1865.87 136.943 1862.09 139.04C1858.53 141.138 1854.54 142.186 1850.14 142.186ZM1850.14 47.8148C1845.74 47.8148 1841.65 46.7663 1837.87 44.6691C1834.31 42.572 1831.48 39.7408 1829.38 36.1757C1827.28 32.4008 1826.23 28.3114 1826.23 23.9074C1826.23 19.5034 1827.28 15.5188 1829.38 11.9537C1831.48 8.17884 1834.31 5.24285 1837.87 3.14571C1841.65 1.04857 1845.74 0 1850.14 0C1854.54 0 1858.53 1.04857 1862.09 3.14571C1865.87 5.24285 1868.8 8.17884 1870.9 11.9537C1873 15.5188 1874.05 19.5034 1874.05 23.9074C1874.05 28.3114 1873 32.4008 1870.9 36.1757C1868.8 39.7408 1865.87 42.572 1862.09 44.6691C1858.53 46.7663 1854.54 47.8148 1850.14 47.8148ZM1850.14 79.2719C1845.74 79.2719 1841.65 78.2234 1837.87 76.1262C1834.31 74.0291 1831.48 71.1979 1829.38 67.6328C1827.28 63.8579 1826.23 59.7685 1826.23 55.3645C1826.23 50.9605 1827.28 46.976 1829.38 43.4108C1831.48 39.636 1834.31 36.7 1837.87 34.6028C1841.65 32.5057 1845.74 31.4571 1850.14 31.4571C1854.54 31.4571 1858.53 32.5057 1862.09 34.6028C1865.87 36.7 1868.8 39.636 1870.9 43.4108C1873 46.976 1874.05 50.9605 1874.05 55.3645C1874.05 59.7685 1873 63.8579 1870.9 67.6328C1868.8 71.1979 1865.87 74.0291 1862.09 76.1262C1858.53 78.2234 1854.54 79.2719 1850.14 79.2719ZM1850.14 110.729C1845.74 110.729 1841.65 109.68 1837.87 107.583C1834.31 105.486 1831.48 102.655 1829.38 99.0899C1827.28 95.3151 1826.23 91.2257 1826.23 86.8217C1826.23 82.4177 1827.28 78.4331 1829.38 74.8679C1831.48 71.0931 1834.31 68.1571 1837.87 66.06C1841.65 63.9628 1845.74 62.9143 1850.14 62.9143C1854.54 62.9143 1858.53 63.9628 1862.09 66.06C1865.87 68.1571 1868.8 71.0931 1870.9 74.8679C1873 78.4331 1874.05 82.4177 1874.05 86.8217C1874.05 91.2257 1873 95.3151 1870.9 99.0899C1868.8 102.655 1865.87 105.486 1862.09 107.583C1858.53 109.68 1854.54 110.729 1850.14 110.729ZM1818.68 79.2719C1814.28 79.2719 1810.19 78.2234 1806.41 76.1262C1802.85 74.0291 1800.02 71.1979 1797.92 67.6328C1795.82 63.8579 1794.78 59.7685 1794.78 55.3645C1794.78 50.9605 1795.82 46.976 1797.92 43.4108C1800.02 39.636 1802.85 36.7 1806.41 34.6028C1810.19 32.5057 1814.28 31.4571 1818.68 31.4571C1823.09 31.4571 1827.07 32.5057 1830.64 34.6028C1834.41 36.7 1837.35 39.636 1839.44 43.4108C1841.54 46.976 1842.59 50.9605 1842.59 55.3645C1842.59 59.7685 1841.54 63.8579 1839.44 67.6328C1837.35 71.1979 1834.41 74.0291 1830.64 76.1262C1827.07 78.2234 1823.09 79.2719 1818.68 79.2719ZM1787.23 47.8148C1782.82 47.8148 1778.73 46.7663 1774.96 44.6691C1771.39 42.572 1768.56 39.7408 1766.46 36.1757C1764.37 32.4008 1763.32 28.3114 1763.32 23.9074C1763.32 19.5034 1764.37 15.5188 1766.46 11.9537C1768.56 8.17884 1771.39 5.24285 1774.96 3.14571C1778.73 1.04857 1782.82 0 1787.23 0C1791.63 0 1795.61 1.04857 1799.18 3.14571C1802.95 5.24285 1805.89 8.17884 1807.99 11.9537C1810.08 15.5188 1811.13 19.5034 1811.13 23.9074C1811.13 28.3114 1810.08 32.4008 1807.99 36.1757C1805.89 39.7408 1802.95 42.572 1799.18 44.6691C1795.61 46.7663 1791.63 47.8148 1787.23 47.8148ZM1787.23 79.2719C1782.82 79.2719 1778.73 78.2234 1774.96 76.1262C1771.39 74.0291 1768.56 71.1979 1766.46 67.6328C1764.37 63.8579 1763.32 59.7685 1763.32 55.3645C1763.32 50.9605 1764.37 46.976 1766.46 43.4108C1768.56 39.636 1771.39 36.7 1774.96 34.6028C1778.73 32.5057 1782.82 31.4571 1787.23 31.4571C1791.63 31.4571 1795.61 32.5057 1799.18 34.6028C1802.95 36.7 1805.89 39.636 1807.99 43.4108C1810.08 46.976 1811.13 50.9605 1811.13 55.3645C1811.13 59.7685 1810.08 63.8579 1807.99 67.6328C1805.89 71.1979 1802.95 74.0291 1799.18 76.1262C1795.61 78.2234 1791.63 79.2719 1787.23 79.2719ZM1787.23 110.729C1782.82 110.729 1778.73 109.68 1774.96 107.583C1771.39 105.486 1768.56 102.655 1766.46 99.0899C1764.37 95.3151 1763.32 91.2257 1763.32 86.8217C1763.32 82.4177 1764.37 78.4331 1766.46 74.8679C1768.56 71.0931 1771.39 68.1571 1774.96 66.06C1778.73 63.9628 1782.82 62.9143 1787.23 62.9143C1791.63 62.9143 1795.61 63.9628 1799.18 66.06C1802.95 68.1571 1805.89 71.0931 1807.99 74.8679C1810.08 78.4331 1811.13 82.4177 1811.13 86.8217C1811.13 91.2257 1810.08 95.3151 1807.99 99.0899C1805.89 102.655 1802.95 105.486 1799.18 107.583C1795.61 109.68 1791.63 110.729 1787.23 110.729ZM1787.23 142.186C1782.82 142.186 1778.73 141.138 1774.96 139.04C1771.39 136.943 1768.56 134.112 1766.46 130.547C1764.37 126.772 1763.32 122.683 1763.32 118.279C1763.32 113.875 1764.37 109.89 1766.46 106.325C1768.56 102.55 1771.39 99.6142 1774.96 97.5171C1778.73 95.4199 1782.82 94.3714 1787.23 94.3714C1791.63 94.3714 1795.61 95.4199 1799.18 97.5171C1802.95 99.6142 1805.89 102.55 1807.99 106.325C1810.08 109.89 1811.13 113.875 1811.13 118.279C1811.13 122.683 1810.08 126.772 1807.99 130.547C1805.89 134.112 1802.95 136.943 1799.18 139.04C1795.61 141.138 1791.63 142.186 1787.23 142.186ZM1787.23 173.643C1782.82 173.643 1778.73 172.595 1774.96 170.498C1771.39 168.4 1768.56 165.569 1766.46 162.004C1764.37 158.229 1763.32 154.14 1763.32 149.736C1763.32 145.332 1764.37 141.347 1766.46 137.782C1768.56 134.007 1771.39 131.071 1774.96 128.974C1778.73 126.877 1782.82 125.828 1787.23 125.828C1791.63 125.828 1795.61 126.877 1799.18 128.974C1802.95 131.071 1805.89 134.007 1807.99 137.782C1810.08 141.347 1811.13 145.332 1811.13 149.736C1811.13 154.14 1810.08 158.229 1807.99 162.004C1805.89 165.569 1802.95 168.4 1799.18 170.498C1795.61 172.595 1791.63 173.643 1787.23 173.643Z" fill="white"/>
<path d="M1724.19 142.186C1719.78 142.186 1715.7 141.138 1711.92 139.04C1708.36 136.943 1705.52 134.112 1703.43 130.547C1701.33 126.772 1700.28 122.683 1700.28 118.279C1700.28 113.875 1701.33 109.89 1703.43 106.325C1705.52 102.55 1708.36 99.6142 1711.92 97.5171C1715.7 95.4199 1719.78 94.3714 1724.19 94.3714C1728.59 94.3714 1732.58 95.4199 1736.14 97.5171C1739.92 99.6142 1742.85 102.55 1744.95 106.325C1747.05 109.89 1748.1 113.875 1748.1 118.279C1748.1 122.683 1747.05 126.772 1744.95 130.547C1742.85 134.112 1739.92 136.943 1736.14 139.04C1732.58 141.138 1728.59 142.186 1724.19 142.186ZM1724.19 173.643C1719.78 173.643 1715.7 172.595 1711.92 170.498C1708.36 168.4 1705.52 165.569 1703.43 162.004C1701.33 158.229 1700.28 154.14 1700.28 149.736C1700.28 145.332 1701.33 141.347 1703.43 137.782C1705.52 134.007 1708.36 131.071 1711.92 128.974C1715.7 126.877 1719.78 125.828 1724.19 125.828C1728.59 125.828 1732.58 126.877 1736.14 128.974C1739.92 131.071 1742.85 134.007 1744.95 137.782C1747.05 141.347 1748.1 145.332 1748.1 149.736C1748.1 154.14 1747.05 158.229 1744.95 162.004C1742.85 165.569 1739.92 168.4 1736.14 170.498C1732.58 172.595 1728.59 173.643 1724.19 173.643ZM1724.19 79.2719C1719.78 79.2719 1715.7 78.2234 1711.92 76.1262C1708.36 74.0291 1705.52 71.1979 1703.43 67.6328C1701.33 63.8579 1700.28 59.7685 1700.28 55.3645C1700.28 50.9605 1701.33 46.976 1703.43 43.4108C1705.52 39.636 1708.36 36.7 1711.92 34.6028C1715.7 32.5057 1719.78 31.4571 1724.19 31.4571C1728.59 31.4571 1732.58 32.5057 1736.14 34.6028C1739.92 36.7 1742.85 39.636 1744.95 43.4108C1747.05 46.976 1748.1 50.9605 1748.1 55.3645C1748.1 59.7685 1747.05 63.8579 1744.95 67.6328C1742.85 71.1979 1739.92 74.0291 1736.14 76.1262C1732.58 78.2234 1728.59 79.2719 1724.19 79.2719ZM1692.73 110.729C1688.33 110.729 1684.24 109.68 1680.46 107.583C1676.9 105.486 1674.07 102.655 1671.97 99.0899C1669.87 95.3151 1668.82 91.2257 1668.82 86.8217C1668.82 82.4177 1669.87 78.4331 1671.97 74.8679C1674.07 71.0931 1676.9 68.1571 1680.46 66.06C1684.24 63.9628 1688.33 62.9143 1692.73 62.9143C1697.14 62.9143 1701.12 63.9628 1704.69 66.06C1708.46 68.1571 1711.4 71.0931 1713.49 74.8679C1715.59 78.4331 1716.64 82.4177 1716.64 86.8217C1716.64 91.2257 1715.59 95.3151 1713.49 99.0899C1711.4 102.655 1708.46 105.486 1704.69 107.583C1701.12 109.68 1697.14 110.729 1692.73 110.729ZM1661.27 47.8148C1656.87 47.8148 1652.78 46.7663 1649.01 44.6691C1645.44 42.572 1642.61 39.7408 1640.51 36.1757C1638.42 32.4008 1637.37 28.3114 1637.37 23.9074C1637.37 19.5034 1638.42 15.5188 1640.51 11.9537C1642.61 8.17884 1645.44 5.24285 1649.01 3.14571C1652.78 1.04857 1656.87 0 1661.27 0C1665.68 0 1669.66 1.04857 1673.23 3.14571C1677 5.24285 1679.94 8.17884 1682.04 11.9537C1684.13 15.5188 1685.18 19.5034 1685.18 23.9074C1685.18 28.3114 1684.13 32.4008 1682.04 36.1757C1679.94 39.7408 1677 42.572 1673.23 44.6691C1669.66 46.7663 1665.68 47.8148 1661.27 47.8148ZM1661.27 173.643C1656.87 173.643 1652.78 172.595 1649.01 170.498C1645.44 168.4 1642.61 165.569 1640.51 162.004C1638.42 158.229 1637.37 154.14 1637.37 149.736C1637.37 145.332 1638.42 141.347 1640.51 137.782C1642.61 134.007 1645.44 131.071 1649.01 128.974C1652.78 126.877 1656.87 125.828 1661.27 125.828C1665.68 125.828 1669.66 126.877 1673.23 128.974C1677 131.071 1679.94 134.007 1682.04 137.782C1684.13 141.347 1685.18 145.332 1685.18 149.736C1685.18 154.14 1684.13 158.229 1682.04 162.004C1679.94 165.569 1677 168.4 1673.23 170.498C1669.66 172.595 1665.68 173.643 1661.27 173.643ZM1692.73 47.8148C1688.33 47.8148 1684.24 46.7663 1680.46 44.6691C1676.9 42.572 1674.07 39.7408 1671.97 36.1757C1669.87 32.4008 1668.82 28.3114 1668.82 23.9074C1668.82 19.5034 1669.87 15.5188 1671.97 11.9537C1674.07 8.17884 1676.9 5.24285 1680.46 3.14571C1684.24 1.04857 1688.33 0 1692.73 0C1697.14 0 1701.12 1.04857 1704.69 3.14571C1708.46 5.24285 1711.4 8.17884 1713.49 11.9537C1715.59 15.5188 1716.64 19.5034 1716.64 23.9074C1716.64 28.3114 1715.59 32.4008 1713.49 36.1757C1711.4 39.7408 1708.46 42.572 1704.69 44.6691C1701.12 46.7663 1697.14 47.8148 1692.73 47.8148ZM1661.27 79.2719C1656.87 79.2719 1652.78 78.2234 1649.01 76.1262C1645.44 74.0291 1642.61 71.1979 1640.51 67.6328C1638.42 63.8579 1637.37 59.7685 1637.37 55.3645C1637.37 50.9605 1638.42 46.976 1640.51 43.4108C1642.61 39.636 1645.44 36.7 1649.01 34.6028C1652.78 32.5057 1656.87 31.4571 1661.27 31.4571C1665.68 31.4571 1669.66 32.5057 1673.23 34.6028C1677 36.7 1679.94 39.636 1682.04 43.4108C1684.13 46.976 1685.18 50.9605 1685.18 55.3645C1685.18 59.7685 1684.13 63.8579 1682.04 67.6328C1679.94 71.1979 1677 74.0291 1673.23 76.1262C1669.66 78.2234 1665.68 79.2719 1661.27 79.2719ZM1661.27 110.729C1656.87 110.729 1652.78 109.68 1649.01 107.583C1645.44 105.486 1642.61 102.655 1640.51 99.0899C1638.42 95.3151 1637.37 91.2257 1637.37 86.8217C1637.37 82.4177 1638.42 78.4331 1640.51 74.8679C1642.61 71.0931 1645.44 68.1571 1649.01 66.06C1652.78 63.9628 1656.87 62.9143 1661.27 62.9143C1665.68 62.9143 1669.66 63.9628 1673.23 66.06C1677 68.1571 1679.94 71.0931 1682.04 74.8679C1684.13 78.4331 1685.18 82.4177 1685.18 86.8217C1685.18 91.2257 1684.13 95.3151 1682.04 99.0899C1679.94 102.655 1677 105.486 1673.23 107.583C1669.66 109.68 1665.68 110.729 1661.27 110.729ZM1661.27 142.186C1656.87 142.186 1652.78 141.138 1649.01 139.04C1645.44 136.943 1642.61 134.112 1640.51 130.547C1638.42 126.772 1637.37 122.683 1637.37 118.279C1637.37 113.875 1638.42 109.89 1640.51 106.325C1642.61 102.55 1645.44 99.6142 1649.01 97.5171C1652.78 95.4199 1656.87 94.3714 1661.27 94.3714C1665.68 94.3714 1669.66 95.4199 1673.23 97.5171C1677 99.6142 1679.94 102.55 1682.04 106.325C1684.13 109.89 1685.18 113.875 1685.18 118.279C1685.18 122.683 1684.13 126.772 1682.04 130.547C1679.94 134.112 1677 136.943 1673.23 139.04C1669.66 141.138 1665.68 142.186 1661.27 142.186Z" fill="white"/>
<path d="M1598.24 142.186C1593.83 142.186 1589.74 141.138 1585.97 139.04C1582.4 136.943 1579.57 134.112 1577.47 130.547C1575.38 126.772 1574.33 122.683 1574.33 118.279C1574.33 113.875 1575.38 109.89 1577.47 106.325C1579.57 102.55 1582.4 99.6142 1585.97 97.5171C1589.74 95.4199 1593.83 94.3714 1598.24 94.3714C1602.64 94.3714 1606.62 95.4199 1610.19 97.5171C1613.96 99.6142 1616.9 102.55 1619 106.325C1621.09 109.89 1622.14 113.875 1622.14 118.279C1622.14 122.683 1621.09 126.772 1619 130.547C1616.9 134.112 1613.96 136.943 1610.19 139.04C1606.62 141.138 1602.64 142.186 1598.24 142.186ZM1598.24 110.729C1593.83 110.729 1589.74 109.68 1585.97 107.583C1582.4 105.486 1579.57 102.655 1577.47 99.0899C1575.38 95.3151 1574.33 91.2257 1574.33 86.8217C1574.33 82.4177 1575.38 78.4331 1577.47 74.8679C1579.57 71.0931 1582.4 68.1571 1585.97 66.06C1589.74 63.9628 1593.83 62.9143 1598.24 62.9143C1602.64 62.9143 1606.62 63.9628 1610.19 66.06C1613.96 68.1571 1616.9 71.0931 1619 74.8679C1621.09 78.4331 1622.14 82.4177 1622.14 86.8217C1622.14 91.2257 1621.09 95.3151 1619 99.0899C1616.9 102.655 1613.96 105.486 1610.19 107.583C1606.62 109.68 1602.64 110.729 1598.24 110.729ZM1598.24 79.2719C1593.83 79.2719 1589.74 78.2234 1585.97 76.1262C1582.4 74.0291 1579.57 71.1979 1577.47 67.6328C1575.38 63.8579 1574.33 59.7685 1574.33 55.3645C1574.33 50.9605 1575.38 46.976 1577.47 43.4108C1579.57 39.636 1582.4 36.7 1585.97 34.6028C1589.74 32.5057 1593.83 31.4571 1598.24 31.4571C1602.64 31.4571 1606.62 32.5057 1610.19 34.6028C1613.96 36.7 1616.9 39.636 1619 43.4108C1621.09 46.976 1622.14 50.9605 1622.14 55.3645C1622.14 59.7685 1621.09 63.8579 1619 67.6328C1616.9 71.1979 1613.96 74.0291 1610.19 76.1262C1606.62 78.2234 1602.64 79.2719 1598.24 79.2719ZM1566.78 47.8148C1562.37 47.8148 1558.29 46.7663 1554.51 44.6691C1550.95 42.572 1548.11 39.7408 1546.02 36.1757C1543.92 32.4008 1542.87 28.3114 1542.87 23.9074C1542.87 19.5034 1543.92 15.5188 1546.02 11.9537C1548.11 8.17884 1550.95 5.24285 1554.51 3.14571C1558.29 1.04857 1562.37 0 1566.78 0C1571.18 0 1575.17 1.04857 1578.73 3.14571C1582.51 5.24285 1585.44 8.17884 1587.54 11.9537C1589.64 15.5188 1590.69 19.5034 1590.69 23.9074C1590.69 28.3114 1589.64 32.4008 1587.54 36.1757C1585.44 39.7408 1582.51 42.572 1578.73 44.6691C1575.17 46.7663 1571.18 47.8148 1566.78 47.8148ZM1535.32 79.2719C1530.92 79.2719 1526.83 78.2234 1523.05 76.1262C1519.49 74.0291 1516.66 71.1979 1514.56 67.6328C1512.46 63.8579 1511.41 59.7685 1511.41 55.3645C1511.41 50.9605 1512.46 46.976 1514.56 43.4108C1516.66 39.636 1519.49 36.7 1523.05 34.6028C1526.83 32.5057 1530.92 31.4571 1535.32 31.4571C1539.73 31.4571 1543.71 32.5057 1547.28 34.6028C1551.05 36.7 1553.99 39.636 1556.08 43.4108C1558.18 46.976 1559.23 50.9605 1559.23 55.3645C1559.23 59.7685 1558.18 63.8579 1556.08 67.6328C1553.99 71.1979 1551.05 74.0291 1547.28 76.1262C1543.71 78.2234 1539.73 79.2719 1535.32 79.2719ZM1535.32 110.729C1530.92 110.729 1526.83 109.68 1523.05 107.583C1519.49 105.486 1516.66 102.655 1514.56 99.0899C1512.46 95.3151 1511.41 91.2257 1511.41 86.8217C1511.41 82.4177 1512.46 78.4331 1514.56 74.8679C1516.66 71.0931 1519.49 68.1571 1523.05 66.06C1526.83 63.9628 1530.92 62.9143 1535.32 62.9143C1539.73 62.9143 1543.71 63.9628 1547.28 66.06C1551.05 68.1571 1553.99 71.0931 1556.08 74.8679C1558.18 78.4331 1559.23 82.4177 1559.23 86.8217C1559.23 91.2257 1558.18 95.3151 1556.08 99.0899C1553.99 102.655 1551.05 105.486 1547.28 107.583C1543.71 109.68 1539.73 110.729 1535.32 110.729ZM1535.32 142.186C1530.92 142.186 1526.83 141.138 1523.05 139.04C1519.49 136.943 1516.66 134.112 1514.56 130.547C1512.46 126.772 1511.41 122.683 1511.41 118.279C1511.41 113.875 1512.46 109.89 1514.56 106.325C1516.66 102.55 1519.49 99.6142 1523.05 97.5171C1526.83 95.4199 1530.92 94.3714 1535.32 94.3714C1539.73 94.3714 1543.71 95.4199 1547.28 97.5171C1551.05 99.6142 1553.99 102.55 1556.08 106.325C1558.18 109.89 1559.23 113.875 1559.23 118.279C1559.23 122.683 1558.18 126.772 1556.08 130.547C1553.99 134.112 1551.05 136.943 1547.28 139.04C1543.71 141.138 1539.73 142.186 1535.32 142.186ZM1566.78 173.643C1562.37 173.643 1558.29 172.595 1554.51 170.498C1550.95 168.4 1548.11 165.569 1546.02 162.004C1543.92 158.229 1542.87 154.14 1542.87 149.736C1542.87 145.332 1543.92 141.347 1546.02 137.782C1548.11 134.007 1550.95 131.071 1554.51 128.974C1558.29 126.877 1562.37 125.828 1566.78 125.828C1571.18 125.828 1575.17 126.877 1578.73 128.974C1582.51 131.071 1585.44 134.007 1587.54 137.782C1589.64 141.347 1590.69 145.332 1590.69 149.736C1590.69 154.14 1589.64 158.229 1587.54 162.004C1585.44 165.569 1582.51 168.4 1578.73 170.498C1575.17 172.595 1571.18 173.643 1566.78 173.643Z" fill="white"/>
<path d="M1472.29 110.729C1467.88 110.729 1463.79 109.68 1460.02 107.583C1456.45 105.486 1453.62 102.655 1451.52 99.0899C1449.43 95.3151 1448.38 91.2257 1448.38 86.8217C1448.38 82.4177 1449.43 78.4331 1451.52 74.8679C1453.62 71.0931 1456.45 68.1571 1460.02 66.06C1463.79 63.9628 1467.88 62.9143 1472.29 62.9143C1476.69 62.9143 1480.67 63.9628 1484.24 66.06C1488.01 68.1571 1490.95 71.0931 1493.05 74.8679C1495.15 78.4331 1496.19 82.4177 1496.19 86.8217C1496.19 91.2257 1495.15 95.3151 1493.05 99.0899C1490.95 102.655 1488.01 105.486 1484.24 107.583C1480.67 109.68 1476.69 110.729 1472.29 110.729ZM1472.29 47.8148C1467.88 47.8148 1463.79 46.7663 1460.02 44.6691C1456.45 42.572 1453.62 39.7408 1451.52 36.1757C1449.43 32.4008 1448.38 28.3114 1448.38 23.9074C1448.38 19.5034 1449.43 15.5188 1451.52 11.9537C1453.62 8.17884 1456.45 5.24285 1460.02 3.14571C1463.79 1.04857 1467.88 0 1472.29 0C1476.69 0 1480.67 1.04857 1484.24 3.14571C1488.01 5.24285 1490.95 8.17884 1493.05 11.9537C1495.15 15.5188 1496.19 19.5034 1496.19 23.9074C1496.19 28.3114 1495.15 32.4008 1493.05 36.1757C1490.95 39.7408 1488.01 42.572 1484.24 44.6691C1480.67 46.7663 1476.69 47.8148 1472.29 47.8148ZM1409.37 142.186C1404.97 142.186 1400.88 141.138 1397.1 139.04C1393.54 136.943 1390.71 134.112 1388.61 130.547C1386.51 126.772 1385.46 122.683 1385.46 118.279C1385.46 113.875 1386.51 109.89 1388.61 106.325C1390.71 102.55 1393.54 99.6142 1397.1 97.5171C1400.88 95.4199 1404.97 94.3714 1409.37 94.3714C1413.78 94.3714 1417.76 95.4199 1421.33 97.5171C1425.1 99.6142 1428.04 102.55 1430.13 106.325C1432.23 109.89 1433.28 113.875 1433.28 118.279C1433.28 122.683 1432.23 126.772 1430.13 130.547C1428.04 134.112 1425.1 136.943 1421.33 139.04C1417.76 141.138 1413.78 142.186 1409.37 142.186ZM1409.37 110.729C1404.97 110.729 1400.88 109.68 1397.1 107.583C1393.54 105.486 1390.71 102.655 1388.61 99.0899C1386.51 95.3151 1385.46 91.2257 1385.46 86.8217C1385.46 82.4177 1386.51 78.4331 1388.61 74.8679C1390.71 71.0931 1393.54 68.1571 1397.1 66.06C1400.88 63.9628 1404.97 62.9143 1409.37 62.9143C1413.78 62.9143 1417.76 63.9628 1421.33 66.06C1425.1 68.1571 1428.04 71.0931 1430.13 74.8679C1432.23 78.4331 1433.28 82.4177 1433.28 86.8217C1433.28 91.2257 1432.23 95.3151 1430.13 99.0899C1428.04 102.655 1425.1 105.486 1421.33 107.583C1417.76 109.68 1413.78 110.729 1409.37 110.729ZM1409.37 79.2719C1404.97 79.2719 1400.88 78.2234 1397.1 76.1262C1393.54 74.0291 1390.71 71.1979 1388.61 67.6328C1386.51 63.8579 1385.46 59.7685 1385.46 55.3645C1385.46 50.9605 1386.51 46.976 1388.61 43.4108C1390.71 39.636 1393.54 36.7 1397.1 34.6028C1400.88 32.5057 1404.97 31.4571 1409.37 31.4571C1413.78 31.4571 1417.76 32.5057 1421.33 34.6028C1425.1 36.7 1428.04 39.636 1430.13 43.4108C1432.23 46.976 1433.28 50.9605 1433.28 55.3645C1433.28 59.7685 1432.23 63.8579 1430.13 67.6328C1428.04 71.1979 1425.1 74.0291 1421.33 76.1262C1417.76 78.2234 1413.78 79.2719 1409.37 79.2719ZM1440.83 47.8148C1436.43 47.8148 1432.34 46.7663 1428.56 44.6691C1425 42.572 1422.16 39.7408 1420.07 36.1757C1417.97 32.4008 1416.92 28.3114 1416.92 23.9074C1416.92 19.5034 1417.97 15.5188 1420.07 11.9537C1422.16 8.17884 1425 5.24285 1428.56 3.14571C1432.34 1.04857 1436.43 0 1440.83 0C1445.23 0 1449.22 1.04857 1452.78 3.14571C1456.56 5.24285 1459.49 8.17884 1461.59 11.9537C1463.69 15.5188 1464.74 19.5034 1464.74 23.9074C1464.74 28.3114 1463.69 32.4008 1461.59 36.1757C1459.49 39.7408 1456.56 42.572 1452.78 44.6691C1449.22 46.7663 1445.23 47.8148 1440.83 47.8148ZM1409.37 173.643C1404.97 173.643 1400.88 172.595 1397.1 170.498C1393.54 168.4 1390.71 165.569 1388.61 162.004C1386.51 158.229 1385.46 154.14 1385.46 149.736C1385.46 145.332 1386.51 141.347 1388.61 137.782C1390.71 134.007 1393.54 131.071 1397.1 128.974C1400.88 126.877 1404.97 125.828 1409.37 125.828C1413.78 125.828 1417.76 126.877 1421.33 128.974C1425.1 131.071 1428.04 134.007 1430.13 137.782C1432.23 141.347 1433.28 145.332 1433.28 149.736C1433.28 154.14 1432.23 158.229 1430.13 162.004C1428.04 165.569 1425.1 168.4 1421.33 170.498C1417.76 172.595 1413.78 173.643 1409.37 173.643ZM1409.37 47.8148C1404.97 47.8148 1400.88 46.7663 1397.1 44.6691C1393.54 42.572 1390.71 39.7408 1388.61 36.1757C1386.51 32.4008 1385.46 28.3114 1385.46 23.9074C1385.46 19.5034 1386.51 15.5188 1388.61 11.9537C1390.71 8.17884 1393.54 5.24285 1397.1 3.14571C1400.88 1.04857 1404.97 0 1409.37 0C1413.78 0 1417.76 1.04857 1421.33 3.14571C1425.1 5.24285 1428.04 8.17884 1430.13 11.9537C1432.23 15.5188 1433.28 19.5034 1433.28 23.9074C1433.28 28.3114 1432.23 32.4008 1430.13 36.1757C1428.04 39.7408 1425.1 42.572 1421.33 44.6691C1417.76 46.7663 1413.78 47.8148 1409.37 47.8148ZM1440.83 110.729C1436.43 110.729 1432.34 109.68 1428.56 107.583C1425 105.486 1422.16 102.655 1420.07 99.0899C1417.97 95.3151 1416.92 91.2257 1416.92 86.8217C1416.92 82.4177 1417.97 78.4331 1420.07 74.8679C1422.16 71.0931 1425 68.1571 1428.56 66.06C1432.34 63.9628 1436.43 62.9143 1440.83 62.9143C1445.23 62.9143 1449.22 63.9628 1452.78 66.06C1456.56 68.1571 1459.49 71.0931 1461.59 74.8679C1463.69 78.4331 1464.74 82.4177 1464.74 86.8217C1464.74 91.2257 1463.69 95.3151 1461.59 99.0899C1459.49 102.655 1456.56 105.486 1452.78 107.583C1449.22 109.68 1445.23 110.729 1440.83 110.729Z" fill="white"/>
<path d="M1220.38 173.643C1215.98 173.643 1211.89 172.595 1208.11 170.498C1204.55 168.4 1201.72 165.569 1199.62 162.004C1197.52 158.229 1196.47 154.14 1196.47 149.736C1196.47 145.332 1197.52 141.347 1199.62 137.782C1201.72 134.007 1204.55 131.071 1208.11 128.974C1211.89 126.877 1215.98 125.828 1220.38 125.828C1224.79 125.828 1228.77 126.877 1232.34 128.974C1236.11 131.071 1239.05 134.007 1241.14 137.782C1243.24 141.347 1244.29 145.332 1244.29 149.736C1244.29 154.14 1243.24 158.229 1241.14 162.004C1239.05 165.569 1236.11 168.4 1232.34 170.498C1228.77 172.595 1224.79 173.643 1220.38 173.643ZM1157.47 47.8148C1153.06 47.8148 1148.97 46.7663 1145.2 44.6691C1141.63 42.572 1138.8 39.7408 1136.71 36.1757C1134.61 32.4008 1133.56 28.3114 1133.56 23.9074C1133.56 19.5034 1134.61 15.5188 1136.71 11.9537C1138.8 8.17884 1141.63 5.24285 1145.2 3.14571C1148.97 1.04857 1153.06 0 1157.47 0C1161.87 0 1165.86 1.04857 1169.42 3.14571C1173.2 5.24285 1176.13 8.17884 1178.23 11.9537C1180.33 15.5188 1181.38 19.5034 1181.38 23.9074C1181.38 28.3114 1180.33 32.4008 1178.23 36.1757C1176.13 39.7408 1173.2 42.572 1169.42 44.6691C1165.86 46.7663 1161.87 47.8148 1157.47 47.8148ZM1157.47 173.643C1153.06 173.643 1148.97 172.595 1145.2 170.498C1141.63 168.4 1138.8 165.569 1136.71 162.004C1134.61 158.229 1133.56 154.14 1133.56 149.736C1133.56 145.332 1134.61 141.347 1136.71 137.782C1138.8 134.007 1141.63 131.071 1145.2 128.974C1148.97 126.877 1153.06 125.828 1157.47 125.828C1161.87 125.828 1165.86 126.877 1169.42 128.974C1173.2 131.071 1176.13 134.007 1178.23 137.782C1180.33 141.347 1181.38 145.332 1181.38 149.736C1181.38 154.14 1180.33 158.229 1178.23 162.004C1176.13 165.569 1173.2 168.4 1169.42 170.498C1165.86 172.595 1161.87 173.643 1157.47 173.643ZM1188.93 173.643C1184.52 173.643 1180.43 172.595 1176.66 170.498C1173.09 168.4 1170.26 165.569 1168.16 162.004C1166.07 158.229 1165.02 154.14 1165.02 149.736C1165.02 145.332 1166.07 141.347 1168.16 137.782C1170.26 134.007 1173.09 131.071 1176.66 128.974C1180.43 126.877 1184.52 125.828 1188.93 125.828C1193.33 125.828 1197.31 126.877 1200.88 128.974C1204.65 131.071 1207.59 134.007 1209.69 137.782C1211.78 141.347 1212.83 145.332 1212.83 149.736C1212.83 154.14 1211.78 158.229 1209.69 162.004C1207.59 165.569 1204.65 168.4 1200.88 170.498C1197.31 172.595 1193.33 173.643 1188.93 173.643ZM1157.47 79.2719C1153.06 79.2719 1148.97 78.2234 1145.2 76.1262C1141.63 74.0291 1138.8 71.1979 1136.71 67.6328C1134.61 63.8579 1133.56 59.7685 1133.56 55.3645C1133.56 50.9605 1134.61 46.976 1136.71 43.4108C1138.8 39.636 1141.63 36.7 1145.2 34.6028C1148.97 32.5057 1153.06 31.4571 1157.47 31.4571C1161.87 31.4571 1165.86 32.5057 1169.42 34.6028C1173.2 36.7 1176.13 39.636 1178.23 43.4108C1180.33 46.976 1181.38 50.9605 1181.38 55.3645C1181.38 59.7685 1180.33 63.8579 1178.23 67.6328C1176.13 71.1979 1173.2 74.0291 1169.42 76.1262C1165.86 78.2234 1161.87 79.2719 1157.47 79.2719ZM1157.47 110.729C1153.06 110.729 1148.97 109.68 1145.2 107.583C1141.63 105.486 1138.8 102.655 1136.71 99.0899C1134.61 95.3151 1133.56 91.2257 1133.56 86.8217C1133.56 82.4177 1134.61 78.4331 1136.71 74.8679C1138.8 71.0931 1141.63 68.1571 1145.2 66.06C1148.97 63.9628 1153.06 62.9143 1157.47 62.9143C1161.87 62.9143 1165.86 63.9628 1169.42 66.06C1173.2 68.1571 1176.13 71.0931 1178.23 74.8679C1180.33 78.4331 1181.38 82.4177 1181.38 86.8217C1181.38 91.2257 1180.33 95.3151 1178.23 99.0899C1176.13 102.655 1173.2 105.486 1169.42 107.583C1165.86 109.68 1161.87 110.729 1157.47 110.729ZM1157.47 142.186C1153.06 142.186 1148.97 141.138 1145.2 139.04C1141.63 136.943 1138.8 134.112 1136.71 130.547C1134.61 126.772 1133.56 122.683 1133.56 118.279C1133.56 113.875 1134.61 109.89 1136.71 106.325C1138.8 102.55 1141.63 99.6142 1145.2 97.5171C1148.97 95.4199 1153.06 94.3714 1157.47 94.3714C1161.87 94.3714 1165.86 95.4199 1169.42 97.5171C1173.2 99.6142 1176.13 102.55 1178.23 106.325C1180.33 109.89 1181.38 113.875 1181.38 118.279C1181.38 122.683 1180.33 126.772 1178.23 130.547C1176.13 134.112 1173.2 136.943 1169.42 139.04C1165.86 141.138 1161.87 142.186 1157.47 142.186Z" fill="white"/>
<path d="M1094.43 173.643C1090.03 173.643 1085.94 172.595 1082.16 170.498C1078.6 168.4 1075.76 165.569 1073.67 162.004C1071.57 158.229 1070.52 154.14 1070.52 149.736C1070.52 145.332 1071.57 141.347 1073.67 137.782C1075.76 134.007 1078.6 131.071 1082.16 128.974C1085.94 126.877 1090.03 125.828 1094.43 125.828C1098.83 125.828 1102.82 126.877 1106.38 128.974C1110.16 131.071 1113.09 134.007 1115.19 137.782C1117.29 141.347 1118.34 145.332 1118.34 149.736C1118.34 154.14 1117.29 158.229 1115.19 162.004C1113.09 165.569 1110.16 168.4 1106.38 170.498C1102.82 172.595 1098.83 173.643 1094.43 173.643ZM1094.43 142.186C1090.03 142.186 1085.94 141.138 1082.16 139.04C1078.6 136.943 1075.76 134.112 1073.67 130.547C1071.57 126.772 1070.52 122.683 1070.52 118.279C1070.52 113.875 1071.57 109.89 1073.67 106.325C1075.76 102.55 1078.6 99.6142 1082.16 97.5171C1085.94 95.4199 1090.03 94.3714 1094.43 94.3714C1098.83 94.3714 1102.82 95.4199 1106.38 97.5171C1110.16 99.6142 1113.09 102.55 1115.19 106.325C1117.29 109.89 1118.34 113.875 1118.34 118.279C1118.34 122.683 1117.29 126.772 1115.19 130.547C1113.09 134.112 1110.16 136.943 1106.38 139.04C1102.82 141.138 1098.83 142.186 1094.43 142.186ZM1062.97 47.8148C1058.57 47.8148 1054.48 46.7663 1050.7 44.6691C1047.14 42.572 1044.31 39.7408 1042.21 36.1757C1040.11 32.4008 1039.06 28.3114 1039.06 23.9074C1039.06 19.5034 1040.11 15.5188 1042.21 11.9537C1044.31 8.17884 1047.14 5.24285 1050.7 3.14571C1054.48 1.04857 1058.57 0 1062.97 0C1067.38 0 1071.36 1.04857 1074.93 3.14571C1078.7 5.24285 1081.64 8.17884 1083.73 11.9537C1085.83 15.5188 1086.88 19.5034 1086.88 23.9074C1086.88 28.3114 1085.83 32.4008 1083.73 36.1757C1081.64 39.7408 1078.7 42.572 1074.93 44.6691C1071.36 46.7663 1067.38 47.8148 1062.97 47.8148ZM1094.43 79.2719C1090.03 79.2719 1085.94 78.2234 1082.16 76.1262C1078.6 74.0291 1075.76 71.1979 1073.67 67.6328C1071.57 63.8579 1070.52 59.7685 1070.52 55.3645C1070.52 50.9605 1071.57 46.976 1073.67 43.4108C1075.76 39.636 1078.6 36.7 1082.16 34.6028C1085.94 32.5057 1090.03 31.4571 1094.43 31.4571C1098.83 31.4571 1102.82 32.5057 1106.38 34.6028C1110.16 36.7 1113.09 39.636 1115.19 43.4108C1117.29 46.976 1118.34 50.9605 1118.34 55.3645C1118.34 59.7685 1117.29 63.8579 1115.19 67.6328C1113.09 71.1979 1110.16 74.0291 1106.38 76.1262C1102.82 78.2234 1098.83 79.2719 1094.43 79.2719ZM1094.43 110.729C1090.03 110.729 1085.94 109.68 1082.16 107.583C1078.6 105.486 1075.76 102.655 1073.67 99.0899C1071.57 95.3151 1070.52 91.2257 1070.52 86.8217C1070.52 82.4177 1071.57 78.4331 1073.67 74.8679C1075.76 71.0931 1078.6 68.1571 1082.16 66.06C1085.94 63.9628 1090.03 62.9143 1094.43 62.9143C1098.83 62.9143 1102.82 63.9628 1106.38 66.06C1110.16 68.1571 1113.09 71.0931 1115.19 74.8679C1117.29 78.4331 1118.34 82.4177 1118.34 86.8217C1118.34 91.2257 1117.29 95.3151 1115.19 99.0899C1113.09 102.655 1110.16 105.486 1106.38 107.583C1102.82 109.68 1098.83 110.729 1094.43 110.729ZM1062.97 110.729C1058.57 110.729 1054.48 109.68 1050.7 107.583C1047.14 105.486 1044.31 102.655 1042.21 99.0899C1040.11 95.3151 1039.06 91.2257 1039.06 86.8217C1039.06 82.4177 1040.11 78.4331 1042.21 74.8679C1044.31 71.0931 1047.14 68.1571 1050.7 66.06C1054.48 63.9628 1058.57 62.9143 1062.97 62.9143C1067.38 62.9143 1071.36 63.9628 1074.93 66.06C1078.7 68.1571 1081.64 71.0931 1083.73 74.8679C1085.83 78.4331 1086.88 82.4177 1086.88 86.8217C1086.88 91.2257 1085.83 95.3151 1083.73 99.0899C1081.64 102.655 1078.7 105.486 1074.93 107.583C1071.36 109.68 1067.38 110.729 1062.97 110.729ZM1031.51 79.2719C1027.11 79.2719 1023.02 78.2234 1019.25 76.1262C1015.68 74.0291 1012.85 71.1979 1010.75 67.6328C1008.66 63.8579 1007.61 59.7685 1007.61 55.3645C1007.61 50.9605 1008.66 46.976 1010.75 43.4108C1012.85 39.636 1015.68 36.7 1019.25 34.6028C1023.02 32.5057 1027.11 31.4571 1031.51 31.4571C1035.92 31.4571 1039.9 32.5057 1043.47 34.6028C1047.24 36.7 1050.18 39.636 1052.28 43.4108C1054.37 46.976 1055.42 50.9605 1055.42 55.3645C1055.42 59.7685 1054.37 63.8579 1052.28 67.6328C1050.18 71.1979 1047.24 74.0291 1043.47 76.1262C1039.9 78.2234 1035.92 79.2719 1031.51 79.2719ZM1031.51 110.729C1027.11 110.729 1023.02 109.68 1019.25 107.583C1015.68 105.486 1012.85 102.655 1010.75 99.0899C1008.66 95.3151 1007.61 91.2257 1007.61 86.8217C1007.61 82.4177 1008.66 78.4331 1010.75 74.8679C1012.85 71.0931 1015.68 68.1571 1019.25 66.06C1023.02 63.9628 1027.11 62.9143 1031.51 62.9143C1035.92 62.9143 1039.9 63.9628 1043.47 66.06C1047.24 68.1571 1050.18 71.0931 1052.28 74.8679C1054.37 78.4331 1055.42 82.4177 1055.42 86.8217C1055.42 91.2257 1054.37 95.3151 1052.28 99.0899C1050.18 102.655 1047.24 105.486 1043.47 107.583C1039.9 109.68 1035.92 110.729 1031.51 110.729ZM1031.51 142.186C1027.11 142.186 1023.02 141.138 1019.25 139.04C1015.68 136.943 1012.85 134.112 1010.75 130.547C1008.66 126.772 1007.61 122.683 1007.61 118.279C1007.61 113.875 1008.66 109.89 1010.75 106.325C1012.85 102.55 1015.68 99.6142 1019.25 97.5171C1023.02 95.4199 1027.11 94.3714 1031.51 94.3714C1035.92 94.3714 1039.9 95.4199 1043.47 97.5171C1047.24 99.6142 1050.18 102.55 1052.28 106.325C1054.37 109.89 1055.42 113.875 1055.42 118.279C1055.42 122.683 1054.37 126.772 1052.28 130.547C1050.18 134.112 1047.24 136.943 1043.47 139.04C1039.9 141.138 1035.92 142.186 1031.51 142.186ZM1031.51 173.643C1027.11 173.643 1023.02 172.595 1019.25 170.498C1015.68 168.4 1012.85 165.569 1010.75 162.004C1008.66 158.229 1007.61 154.14 1007.61 149.736C1007.61 145.332 1008.66 141.347 1010.75 137.782C1012.85 134.007 1015.68 131.071 1019.25 128.974C1023.02 126.877 1027.11 125.828 1031.51 125.828C1035.92 125.828 1039.9 126.877 1043.47 128.974C1047.24 131.071 1050.18 134.007 1052.28 137.782C1054.37 141.347 1055.42 145.332 1055.42 149.736C1055.42 154.14 1054.37 158.229 1052.28 162.004C1050.18 165.569 1047.24 168.4 1043.47 170.498C1039.9 172.595 1035.92 173.643 1031.51 173.643Z" fill="white"/>
<path d="M905.57 47.8148C901.166 47.8148 897.076 46.7663 893.301 44.6691C889.736 42.572 886.905 39.7408 884.808 36.1757C882.711 32.4008 881.662 28.3114 881.662 23.9074C881.662 19.5034 882.711 15.5188 884.808 11.9537C886.905 8.17884 889.736 5.24285 893.301 3.14571C897.076 1.04857 901.166 0 905.57 0C909.974 0 913.958 1.04857 917.523 3.14571C921.298 5.24285 924.234 8.17884 926.331 11.9537C928.428 15.5188 929.477 19.5034 929.477 23.9074C929.477 28.3114 928.428 32.4008 926.331 36.1757C924.234 39.7408 921.298 42.572 917.523 44.6691C913.958 46.7663 909.974 47.8148 905.57 47.8148ZM905.57 173.643C901.166 173.643 897.076 172.595 893.301 170.498C889.736 168.4 886.905 165.569 884.808 162.004C882.711 158.229 881.662 154.14 881.662 149.736C881.662 145.332 882.711 141.347 884.808 137.782C886.905 134.007 889.736 131.071 893.301 128.974C897.076 126.877 901.166 125.828 905.57 125.828C909.974 125.828 913.958 126.877 917.523 128.974C921.298 131.071 924.234 134.007 926.331 137.782C928.428 141.347 929.477 145.332 929.477 149.736C929.477 154.14 928.428 158.229 926.331 162.004C924.234 165.569 921.298 168.4 917.523 170.498C913.958 172.595 909.974 173.643 905.57 173.643ZM968.484 47.8148C964.08 47.8148 959.99 46.7663 956.216 44.6691C952.65 42.572 949.819 39.7408 947.722 36.1757C945.625 32.4008 944.576 28.3114 944.576 23.9074C944.576 19.5034 945.625 15.5188 947.722 11.9537C949.819 8.17884 952.65 5.24285 956.216 3.14571C959.99 1.04857 964.08 0 968.484 0C972.888 0 976.872 1.04857 980.437 3.14571C984.212 5.24285 987.148 8.17884 989.245 11.9537C991.343 15.5188 992.391 19.5034 992.391 23.9074C992.391 28.3114 991.343 32.4008 989.245 36.1757C987.148 39.7408 984.212 42.572 980.437 44.6691C976.872 46.7663 972.888 47.8148 968.484 47.8148ZM968.484 173.643C964.08 173.643 959.99 172.595 956.216 170.498C952.65 168.4 949.819 165.569 947.722 162.004C945.625 158.229 944.576 154.14 944.576 149.736C944.576 145.332 945.625 141.347 947.722 137.782C949.819 134.007 952.65 131.071 956.216 128.974C959.99 126.877 964.08 125.828 968.484 125.828C972.888 125.828 976.872 126.877 980.437 128.974C984.212 131.071 987.148 134.007 989.245 137.782C991.343 141.347 992.391 145.332 992.391 149.736C992.391 154.14 991.343 158.229 989.245 162.004C987.148 165.569 984.212 168.4 980.437 170.498C976.872 172.595 972.888 173.643 968.484 173.643ZM937.027 47.8148C932.623 47.8148 928.533 46.7663 924.758 44.6691C921.193 42.572 918.362 39.7408 916.265 36.1757C914.168 32.4008 913.119 28.3114 913.119 23.9074C913.119 19.5034 914.168 15.5188 916.265 11.9537C918.362 8.17884 921.193 5.24285 924.758 3.14571C928.533 1.04857 932.623 0 937.027 0C941.431 0 945.415 1.04857 948.98 3.14571C952.755 5.24285 955.691 8.17884 957.788 11.9537C959.886 15.5188 960.934 19.5034 960.934 23.9074C960.934 28.3114 959.886 32.4008 957.788 36.1757C955.691 39.7408 952.755 42.572 948.98 44.6691C945.415 46.7663 941.431 47.8148 937.027 47.8148ZM937.027 79.2719C932.623 79.2719 928.533 78.2234 924.758 76.1262C921.193 74.0291 918.362 71.1979 916.265 67.6328C914.168 63.8579 913.119 59.7685 913.119 55.3645C913.119 50.9605 914.168 46.976 916.265 43.4108C918.362 39.636 921.193 36.7 924.758 34.6028C928.533 32.5057 932.623 31.4571 937.027 31.4571C941.431 31.4571 945.415 32.5057 948.98 34.6028C952.755 36.7 955.691 39.636 957.788 43.4108C959.886 46.976 960.934 50.9605 960.934 55.3645C960.934 59.7685 959.886 63.8579 957.788 67.6328C955.691 71.1979 952.755 74.0291 948.98 76.1262C945.415 78.2234 941.431 79.2719 937.027 79.2719ZM937.027 110.729C932.623 110.729 928.533 109.68 924.758 107.583C921.193 105.486 918.362 102.655 916.265 99.0899C914.168 95.3151 913.119 91.2257 913.119 86.8217C913.119 82.4177 914.168 78.4331 916.265 74.8679C918.362 71.0931 921.193 68.1571 924.758 66.06C928.533 63.9628 932.623 62.9143 937.027 62.9143C941.431 62.9143 945.415 63.9628 948.98 66.06C952.755 68.1571 955.691 71.0931 957.788 74.8679C959.886 78.4331 960.934 82.4177 960.934 86.8217C960.934 91.2257 959.886 95.3151 957.788 99.0899C955.691 102.655 952.755 105.486 948.98 107.583C945.415 109.68 941.431 110.729 937.027 110.729ZM937.027 142.186C932.623 142.186 928.533 141.138 924.758 139.04C921.193 136.943 918.362 134.112 916.265 130.547C914.168 126.772 913.119 122.683 913.119 118.279C913.119 113.875 914.168 109.89 916.265 106.325C918.362 102.55 921.193 99.6142 924.758 97.5171C928.533 95.4199 932.623 94.3714 937.027 94.3714C941.431 94.3714 945.415 95.4199 948.98 97.5171C952.755 99.6142 955.691 102.55 957.788 106.325C959.886 109.89 960.934 113.875 960.934 118.279C960.934 122.683 959.886 126.772 957.788 130.547C955.691 134.112 952.755 136.943 948.98 139.04C945.415 141.138 941.431 142.186 937.027 142.186ZM937.027 173.643C932.623 173.643 928.533 172.595 924.758 170.498C921.193 168.4 918.362 165.569 916.265 162.004C914.168 158.229 913.119 154.14 913.119 149.736C913.119 145.332 914.168 141.347 916.265 137.782C918.362 134.007 921.193 131.071 924.758 128.974C928.533 126.877 932.623 125.828 937.027 125.828C941.431 125.828 945.415 126.877 948.98 128.974C952.755 131.071 955.691 134.007 957.788 137.782C959.886 141.347 960.934 145.332 960.934 149.736C960.934 154.14 959.886 158.229 957.788 162.004C955.691 165.569 952.755 168.4 948.98 170.498C945.415 172.595 941.431 173.643 937.027 173.643Z" fill="white"/>
<path d="M842.527 47.8148C838.123 47.8148 834.033 46.7663 830.258 44.6691C826.693 42.572 823.862 39.7408 821.765 36.1757C819.668 32.4008 818.619 28.3114 818.619 23.9074C818.619 19.5034 819.668 15.5188 821.765 11.9537C823.862 8.17884 826.693 5.24285 830.258 3.14571C834.033 1.04857 838.123 0 842.527 0C846.931 0 850.915 1.04857 854.48 3.14571C858.255 5.24285 861.191 8.17884 863.288 11.9537C865.386 15.5188 866.434 19.5034 866.434 23.9074C866.434 28.3114 865.386 32.4008 863.288 36.1757C861.191 39.7408 858.255 42.572 854.48 44.6691C850.915 46.7663 846.931 47.8148 842.527 47.8148ZM842.527 173.643C838.123 173.643 834.033 172.595 830.258 170.498C826.693 168.4 823.862 165.569 821.765 162.004C819.668 158.229 818.619 154.14 818.619 149.736C818.619 145.332 819.668 141.347 821.765 137.782C823.862 134.007 826.693 131.071 830.258 128.974C834.033 126.877 838.123 125.828 842.527 125.828C846.931 125.828 850.915 126.877 854.48 128.974C858.255 131.071 861.191 134.007 863.288 137.782C865.386 141.347 866.434 145.332 866.434 149.736C866.434 154.14 865.386 158.229 863.288 162.004C861.191 165.569 858.255 168.4 854.48 170.498C850.915 172.595 846.931 173.643 842.527 173.643ZM811.07 47.8148C806.666 47.8148 802.576 46.7663 798.801 44.6691C795.236 42.572 792.405 39.7408 790.308 36.1757C788.211 32.4008 787.162 28.3114 787.162 23.9074C787.162 19.5034 788.211 15.5188 790.308 11.9537C792.405 8.17884 795.236 5.24285 798.801 3.14571C802.576 1.04857 806.666 0 811.07 0C815.474 0 819.458 1.04857 823.023 3.14571C826.798 5.24285 829.734 8.17884 831.831 11.9537C833.928 15.5188 834.977 19.5034 834.977 23.9074C834.977 28.3114 833.928 32.4008 831.831 36.1757C829.734 39.7408 826.798 42.572 823.023 44.6691C819.458 46.7663 815.474 47.8148 811.07 47.8148ZM779.612 79.2719C775.208 79.2719 771.119 78.2234 767.344 76.1262C763.779 74.0291 760.948 71.1979 758.851 67.6328C756.754 63.8579 755.705 59.7685 755.705 55.3645C755.705 50.9605 756.754 46.976 758.851 43.4108C760.948 39.636 763.779 36.7 767.344 34.6028C771.119 32.5057 775.208 31.4571 779.612 31.4571C784.016 31.4571 788.001 32.5057 791.566 34.6028C795.341 36.7 798.277 39.636 800.374 43.4108C802.471 46.976 803.52 50.9605 803.52 55.3645C803.52 59.7685 802.471 63.8579 800.374 67.6328C798.277 71.1979 795.341 74.0291 791.566 76.1262C788.001 78.2234 784.016 79.2719 779.612 79.2719ZM779.612 110.729C775.208 110.729 771.119 109.68 767.344 107.583C763.779 105.486 760.948 102.655 758.851 99.0899C756.754 95.3151 755.705 91.2257 755.705 86.8217C755.705 82.4177 756.754 78.4331 758.851 74.8679C760.948 71.0931 763.779 68.1571 767.344 66.06C771.119 63.9628 775.208 62.9143 779.612 62.9143C784.016 62.9143 788.001 63.9628 791.566 66.06C795.341 68.1571 798.277 71.0931 800.374 74.8679C802.471 78.4331 803.52 82.4177 803.52 86.8217C803.52 91.2257 802.471 95.3151 800.374 99.0899C798.277 102.655 795.341 105.486 791.566 107.583C788.001 109.68 784.016 110.729 779.612 110.729ZM779.612 142.186C775.208 142.186 771.119 141.138 767.344 139.04C763.779 136.943 760.948 134.112 758.851 130.547C756.754 126.772 755.705 122.683 755.705 118.279C755.705 113.875 756.754 109.89 758.851 106.325C760.948 102.55 763.779 99.6142 767.344 97.5171C771.119 95.4199 775.208 94.3714 779.612 94.3714C784.016 94.3714 788.001 95.4199 791.566 97.5171C795.341 99.6142 798.277 102.55 800.374 106.325C802.471 109.89 803.52 113.875 803.52 118.279C803.52 122.683 802.471 126.772 800.374 130.547C798.277 134.112 795.341 136.943 791.566 139.04C788.001 141.138 784.016 142.186 779.612 142.186ZM811.07 173.643C806.666 173.643 802.576 172.595 798.801 170.498C795.236 168.4 792.405 165.569 790.308 162.004C788.211 158.229 787.162 154.14 787.162 149.736C787.162 145.332 788.211 141.347 790.308 137.782C792.405 134.007 795.236 131.071 798.801 128.974C802.576 126.877 806.666 125.828 811.07 125.828C815.474 125.828 819.458 126.877 823.023 128.974C826.798 131.071 829.734 134.007 831.831 137.782C833.928 141.347 834.977 145.332 834.977 149.736C834.977 154.14 833.928 158.229 831.831 162.004C829.734 165.569 826.798 168.4 823.023 170.498C819.458 172.595 815.474 173.643 811.07 173.643Z" fill="white"/>
<path d="M716.581 142.186C712.177 142.186 708.088 141.138 704.313 139.04C700.748 136.943 697.917 134.112 695.82 130.547C693.723 126.772 692.674 122.683 692.674 118.279C692.674 113.875 693.723 109.89 695.82 106.325C697.917 102.55 700.748 99.6142 704.313 97.5171C708.088 95.4199 712.177 94.3714 716.581 94.3714C720.985 94.3714 724.97 95.4199 728.535 97.5171C732.31 99.6142 735.246 102.55 737.343 106.325C739.44 109.89 740.489 113.875 740.489 118.279C740.489 122.683 739.44 126.772 737.343 130.547C735.246 134.112 732.31 136.943 728.535 139.04C724.97 141.138 720.985 142.186 716.581 142.186ZM716.581 110.729C712.177 110.729 708.088 109.68 704.313 107.583C700.748 105.486 697.917 102.655 695.82 99.0899C693.723 95.3151 692.674 91.2257 692.674 86.8217C692.674 82.4177 693.723 78.4331 695.82 74.8679C697.917 71.0931 700.748 68.1571 704.313 66.06C708.088 63.9628 712.177 62.9143 716.581 62.9143C720.985 62.9143 724.97 63.9628 728.535 66.06C732.31 68.1571 735.246 71.0931 737.343 74.8679C739.44 78.4331 740.489 82.4177 740.489 86.8217C740.489 91.2257 739.44 95.3151 737.343 99.0899C735.246 102.655 732.31 105.486 728.535 107.583C724.97 109.68 720.985 110.729 716.581 110.729ZM716.581 79.2719C712.177 79.2719 708.088 78.2234 704.313 76.1262C700.748 74.0291 697.917 71.1979 695.82 67.6328C693.723 63.8579 692.674 59.7685 692.674 55.3645C692.674 50.9605 693.723 46.976 695.82 43.4108C697.917 39.636 700.748 36.7 704.313 34.6028C708.088 32.5057 712.177 31.4571 716.581 31.4571C720.985 31.4571 724.97 32.5057 728.535 34.6028C732.31 36.7 735.246 39.636 737.343 43.4108C739.44 46.976 740.489 50.9605 740.489 55.3645C740.489 59.7685 739.44 63.8579 737.343 67.6328C735.246 71.1979 732.31 74.0291 728.535 76.1262C724.97 78.2234 720.985 79.2719 716.581 79.2719ZM685.124 47.8148C680.72 47.8148 676.631 46.7663 672.856 44.6691C669.291 42.572 666.46 39.7408 664.363 36.1757C662.265 32.4008 661.217 28.3114 661.217 23.9074C661.217 19.5034 662.265 15.5188 664.363 11.9537C666.46 8.17884 669.291 5.24285 672.856 3.14571C676.631 1.04857 680.72 0 685.124 0C689.528 0 693.513 1.04857 697.078 3.14571C700.853 5.24285 703.789 8.17884 705.886 11.9537C707.983 15.5188 709.032 19.5034 709.032 23.9074C709.032 28.3114 707.983 32.4008 705.886 36.1757C703.789 39.7408 700.853 42.572 697.078 44.6691C693.513 46.7663 689.528 47.8148 685.124 47.8148ZM653.667 79.2719C649.263 79.2719 645.174 78.2234 641.399 76.1262C637.834 74.0291 635.003 71.1979 632.905 67.6328C630.808 63.8579 629.76 59.7685 629.76 55.3645C629.76 50.9605 630.808 46.976 632.905 43.4108C635.003 39.636 637.834 36.7 641.399 34.6028C645.174 32.5057 649.263 31.4571 653.667 31.4571C658.071 31.4571 662.056 32.5057 665.621 34.6028C669.396 36.7 672.332 39.636 674.429 43.4108C676.526 46.976 677.575 50.9605 677.575 55.3645C677.575 59.7685 676.526 63.8579 674.429 67.6328C672.332 71.1979 669.396 74.0291 665.621 76.1262C662.056 78.2234 658.071 79.2719 653.667 79.2719ZM653.667 110.729C649.263 110.729 645.174 109.68 641.399 107.583C637.834 105.486 635.003 102.655 632.905 99.0899C630.808 95.3151 629.76 91.2257 629.76 86.8217C629.76 82.4177 630.808 78.4331 632.905 74.8679C635.003 71.0931 637.834 68.1571 641.399 66.06C645.174 63.9628 649.263 62.9143 653.667 62.9143C658.071 62.9143 662.056 63.9628 665.621 66.06C669.396 68.1571 672.332 71.0931 674.429 74.8679C676.526 78.4331 677.575 82.4177 677.575 86.8217C677.575 91.2257 676.526 95.3151 674.429 99.0899C672.332 102.655 669.396 105.486 665.621 107.583C662.056 109.68 658.071 110.729 653.667 110.729ZM653.667 142.186C649.263 142.186 645.174 141.138 641.399 139.04C637.834 136.943 635.003 134.112 632.905 130.547C630.808 126.772 629.76 122.683 629.76 118.279C629.76 113.875 630.808 109.89 632.905 106.325C635.003 102.55 637.834 99.6142 641.399 97.5171C645.174 95.4199 649.263 94.3714 653.667 94.3714C658.071 94.3714 662.056 95.4199 665.621 97.5171C669.396 99.6142 672.332 102.55 674.429 106.325C676.526 109.89 677.575 113.875 677.575 118.279C677.575 122.683 676.526 126.772 674.429 130.547C672.332 134.112 669.396 136.943 665.621 139.04C662.056 141.138 658.071 142.186 653.667 142.186ZM685.124 173.643C680.72 173.643 676.631 172.595 672.856 170.498C669.291 168.4 666.46 165.569 664.363 162.004C662.265 158.229 661.217 154.14 661.217 149.736C661.217 145.332 662.265 141.347 664.363 137.782C666.46 134.007 669.291 131.071 672.856 128.974C676.631 126.877 680.72 125.828 685.124 125.828C689.528 125.828 693.513 126.877 697.078 128.974C700.853 131.071 703.789 134.007 705.886 137.782C707.983 141.347 709.032 145.332 709.032 149.736C709.032 154.14 707.983 158.229 705.886 162.004C703.789 165.569 700.853 168.4 697.078 170.498C693.513 172.595 689.528 173.643 685.124 173.643Z" fill="white"/>
<path d="M559.171 173.643C554.767 173.643 550.678 172.595 546.903 170.498C543.338 168.4 540.507 165.569 538.409 162.004C536.312 158.229 535.264 154.14 535.264 149.736C535.264 145.332 536.312 141.347 538.409 137.782C540.507 134.007 543.338 131.071 546.903 128.974C550.678 126.877 554.767 125.828 559.171 125.828C563.575 125.828 567.56 126.877 571.125 128.974C574.9 131.071 577.836 134.007 579.933 137.782C582.03 141.347 583.079 145.332 583.079 149.736C583.079 154.14 582.03 158.229 579.933 162.004C577.836 165.569 574.9 168.4 571.125 170.498C567.56 172.595 563.575 173.643 559.171 173.643ZM590.628 142.186C586.224 142.186 582.135 141.138 578.36 139.04C574.795 136.943 571.964 134.112 569.867 130.547C567.769 126.772 566.721 122.683 566.721 118.279C566.721 113.875 567.769 109.89 569.867 106.325C571.964 102.55 574.795 99.6142 578.36 97.5171C582.135 95.4199 586.224 94.3714 590.628 94.3714C595.032 94.3714 599.017 95.4199 602.582 97.5171C606.357 99.6142 609.293 102.55 611.39 106.325C613.487 109.89 614.536 113.875 614.536 118.279C614.536 122.683 613.487 126.772 611.39 130.547C609.293 134.112 606.357 136.943 602.582 139.04C599.017 141.138 595.032 142.186 590.628 142.186ZM590.628 47.8148C586.224 47.8148 582.135 46.7663 578.36 44.6691C574.795 42.572 571.964 39.7408 569.867 36.1757C567.769 32.4008 566.721 28.3114 566.721 23.9074C566.721 19.5034 567.769 15.5188 569.867 11.9537C571.964 8.17884 574.795 5.24285 578.36 3.14571C582.135 1.04857 586.224 0 590.628 0C595.032 0 599.017 1.04857 602.582 3.14571C606.357 5.24285 609.293 8.17884 611.39 11.9537C613.487 15.5188 614.536 19.5034 614.536 23.9074C614.536 28.3114 613.487 32.4008 611.39 36.1757C609.293 39.7408 606.357 42.572 602.582 44.6691C599.017 46.7663 595.032 47.8148 590.628 47.8148ZM559.171 110.729C554.767 110.729 550.678 109.68 546.903 107.583C543.338 105.486 540.507 102.655 538.409 99.0899C536.312 95.3151 535.264 91.2257 535.264 86.8217C535.264 82.4177 536.312 78.4331 538.409 74.8679C540.507 71.0931 543.338 68.1571 546.903 66.06C550.678 63.9628 554.767 62.9143 559.171 62.9143C563.575 62.9143 567.56 63.9628 571.125 66.06C574.9 68.1571 577.836 71.0931 579.933 74.8679C582.03 78.4331 583.079 82.4177 583.079 86.8217C583.079 91.2257 582.03 95.3151 579.933 99.0899C577.836 102.655 574.9 105.486 571.125 107.583C567.56 109.68 563.575 110.729 559.171 110.729ZM527.714 173.643C523.31 173.643 519.221 172.595 515.446 170.498C511.881 168.4 509.05 165.569 506.952 162.004C504.855 158.229 503.807 154.14 503.807 149.736C503.807 145.332 504.855 141.347 506.952 137.782C509.05 134.007 511.881 131.071 515.446 128.974C519.221 126.877 523.31 125.828 527.714 125.828C532.118 125.828 536.103 126.877 539.668 128.974C543.443 131.071 546.379 134.007 548.476 137.782C550.573 141.347 551.621 145.332 551.621 149.736C551.621 154.14 550.573 158.229 548.476 162.004C546.379 165.569 543.443 168.4 539.668 170.498C536.103 172.595 532.118 173.643 527.714 173.643ZM559.171 47.8148C554.767 47.8148 550.678 46.7663 546.903 44.6691C543.338 42.572 540.507 39.7408 538.409 36.1757C536.312 32.4008 535.264 28.3114 535.264 23.9074C535.264 19.5034 536.312 15.5188 538.409 11.9537C540.507 8.17884 543.338 5.24285 546.903 3.14571C550.678 1.04857 554.767 0 559.171 0C563.575 0 567.56 1.04857 571.125 3.14571C574.9 5.24285 577.836 8.17884 579.933 11.9537C582.03 15.5188 583.079 19.5034 583.079 23.9074C583.079 28.3114 582.03 32.4008 579.933 36.1757C577.836 39.7408 574.9 42.572 571.125 44.6691C567.56 46.7663 563.575 47.8148 559.171 47.8148ZM527.714 79.2719C523.31 79.2719 519.221 78.2234 515.446 76.1262C511.881 74.0291 509.05 71.1979 506.952 67.6328C504.855 63.8579 503.807 59.7685 503.807 55.3645C503.807 50.9605 504.855 46.976 506.952 43.4108C509.05 39.636 511.881 36.7 515.446 34.6028C519.221 32.5057 523.31 31.4571 527.714 31.4571C532.118 31.4571 536.103 32.5057 539.668 34.6028C543.443 36.7 546.379 39.636 548.476 43.4108C550.573 46.976 551.621 50.9605 551.621 55.3645C551.621 59.7685 550.573 63.8579 548.476 67.6328C546.379 71.1979 543.443 74.0291 539.668 76.1262C536.103 78.2234 532.118 79.2719 527.714 79.2719Z" fill="white"/>
<path d="M338.724 173.643C334.32 173.643 330.231 172.595 326.456 170.498C322.891 168.4 320.059 165.569 317.962 162.004C315.865 158.229 314.817 154.14 314.817 149.736C314.817 145.332 315.865 141.347 317.962 137.782C320.059 134.007 322.891 131.071 326.456 128.974C330.231 126.877 334.32 125.828 338.724 125.828C343.128 125.828 347.113 126.877 350.678 128.974C354.453 131.071 357.389 134.007 359.486 137.782C361.583 141.347 362.631 145.332 362.631 149.736C362.631 154.14 361.583 158.229 359.486 162.004C357.389 165.569 354.453 168.4 350.678 170.498C347.113 172.595 343.128 173.643 338.724 173.643ZM338.724 142.186C334.32 142.186 330.231 141.138 326.456 139.04C322.891 136.943 320.059 134.112 317.962 130.547C315.865 126.772 314.817 122.683 314.817 118.279C314.817 113.875 315.865 109.89 317.962 106.325C320.059 102.55 322.891 99.6142 326.456 97.5171C330.231 95.4199 334.32 94.3714 338.724 94.3714C343.128 94.3714 347.113 95.4199 350.678 97.5171C354.453 99.6142 357.389 102.55 359.486 106.325C361.583 109.89 362.631 113.875 362.631 118.279C362.631 122.683 361.583 126.772 359.486 130.547C357.389 134.112 354.453 136.943 350.678 139.04C347.113 141.138 343.128 142.186 338.724 142.186ZM338.724 47.8148C334.32 47.8148 330.231 46.7663 326.456 44.6691C322.891 42.572 320.059 39.7408 317.962 36.1757C315.865 32.4008 314.817 28.3114 314.817 23.9074C314.817 19.5034 315.865 15.5188 317.962 11.9537C320.059 8.17884 322.891 5.24285 326.456 3.14571C330.231 1.04857 334.32 0 338.724 0C343.128 0 347.113 1.04857 350.678 3.14571C354.453 5.24285 357.389 8.17884 359.486 11.9537C361.583 15.5188 362.631 19.5034 362.631 23.9074C362.631 28.3114 361.583 32.4008 359.486 36.1757C357.389 39.7408 354.453 42.572 350.678 44.6691C347.113 46.7663 343.128 47.8148 338.724 47.8148ZM338.724 79.2719C334.32 79.2719 330.231 78.2234 326.456 76.1262C322.891 74.0291 320.059 71.1979 317.962 67.6328C315.865 63.8579 314.817 59.7685 314.817 55.3645C314.817 50.9605 315.865 46.976 317.962 43.4108C320.059 39.636 322.891 36.7 326.456 34.6028C330.231 32.5057 334.32 31.4571 338.724 31.4571C343.128 31.4571 347.113 32.5057 350.678 34.6028C354.453 36.7 357.389 39.636 359.486 43.4108C361.583 46.976 362.631 50.9605 362.631 55.3645C362.631 59.7685 361.583 63.8579 359.486 67.6328C357.389 71.1979 354.453 74.0291 350.678 76.1262C347.113 78.2234 343.128 79.2719 338.724 79.2719ZM338.724 110.729C334.32 110.729 330.231 109.68 326.456 107.583C322.891 105.486 320.059 102.655 317.962 99.0899C315.865 95.3151 314.817 91.2257 314.817 86.8217C314.817 82.4177 315.865 78.4331 317.962 74.8679C320.059 71.0931 322.891 68.1571 326.456 66.06C330.231 63.9628 334.32 62.9143 338.724 62.9143C343.128 62.9143 347.113 63.9628 350.678 66.06C354.453 68.1571 357.389 71.0931 359.486 74.8679C361.583 78.4331 362.631 82.4177 362.631 86.8217C362.631 91.2257 361.583 95.3151 359.486 99.0899C357.389 102.655 354.453 105.486 350.678 107.583C347.113 109.68 343.128 110.729 338.724 110.729ZM307.267 142.186C302.863 142.186 298.773 141.138 294.999 139.04C291.433 136.943 288.602 134.112 286.505 130.547C284.408 126.772 283.359 122.683 283.359 118.279C283.359 113.875 284.408 109.89 286.505 106.325C288.602 102.55 291.433 99.6142 294.999 97.5171C298.773 95.4199 302.863 94.3714 307.267 94.3714C311.671 94.3714 315.655 95.4199 319.221 97.5171C322.995 99.6142 325.931 102.55 328.029 106.325C330.126 109.89 331.174 113.875 331.174 118.279C331.174 122.683 330.126 126.772 328.029 130.547C325.931 134.112 322.995 136.943 319.221 139.04C315.655 141.138 311.671 142.186 307.267 142.186ZM275.81 47.8148C271.406 47.8148 267.316 46.7663 263.541 44.6691C259.976 42.572 257.145 39.7408 255.048 36.1757C252.951 32.4008 251.902 28.3114 251.902 23.9074C251.902 19.5034 252.951 15.5188 255.048 11.9537C257.145 8.17884 259.976 5.24285 263.541 3.14571C267.316 1.04857 271.406 0 275.81 0C280.214 0 284.198 1.04857 287.763 3.14571C291.538 5.24285 294.474 8.17884 296.571 11.9537C298.669 15.5188 299.717 19.5034 299.717 23.9074C299.717 28.3114 298.669 32.4008 296.571 36.1757C294.474 39.7408 291.538 42.572 287.763 44.6691C284.198 46.7663 280.214 47.8148 275.81 47.8148ZM275.81 79.2719C271.406 79.2719 267.316 78.2234 263.541 76.1262C259.976 74.0291 257.145 71.1979 255.048 67.6328C252.951 63.8579 251.902 59.7685 251.902 55.3645C251.902 50.9605 252.951 46.976 255.048 43.4108C257.145 39.636 259.976 36.7 263.541 34.6028C267.316 32.5057 271.406 31.4571 275.81 31.4571C280.214 31.4571 284.198 32.5057 287.763 34.6028C291.538 36.7 294.474 39.636 296.571 43.4108C298.669 46.976 299.717 50.9605 299.717 55.3645C299.717 59.7685 298.669 63.8579 296.571 67.6328C294.474 71.1979 291.538 74.0291 287.763 76.1262C284.198 78.2234 280.214 79.2719 275.81 79.2719ZM275.81 110.729C271.406 110.729 267.316 109.68 263.541 107.583C259.976 105.486 257.145 102.655 255.048 99.0899C252.951 95.3151 251.902 91.2257 251.902 86.8217C251.902 82.4177 252.951 78.4331 255.048 74.8679C257.145 71.0931 259.976 68.1571 263.541 66.06C267.316 63.9628 271.406 62.9143 275.81 62.9143C280.214 62.9143 284.198 63.9628 287.763 66.06C291.538 68.1571 294.474 71.0931 296.571 74.8679C298.669 78.4331 299.717 82.4177 299.717 86.8217C299.717 91.2257 298.669 95.3151 296.571 99.0899C294.474 102.655 291.538 105.486 287.763 107.583C284.198 109.68 280.214 110.729 275.81 110.729ZM275.81 142.186C271.406 142.186 267.316 141.138 263.541 139.04C259.976 136.943 257.145 134.112 255.048 130.547C252.951 126.772 251.902 122.683 251.902 118.279C251.902 113.875 252.951 109.89 255.048 106.325C257.145 102.55 259.976 99.6142 263.541 97.5171C267.316 95.4199 271.406 94.3714 275.81 94.3714C280.214 94.3714 284.198 95.4199 287.763 97.5171C291.538 99.6142 294.474 102.55 296.571 106.325C298.669 109.89 299.717 113.875 299.717 118.279C299.717 122.683 298.669 126.772 296.571 130.547C294.474 134.112 291.538 136.943 287.763 139.04C284.198 141.138 280.214 142.186 275.81 142.186ZM275.81 173.643C271.406 173.643 267.316 172.595 263.541 170.498C259.976 168.4 257.145 165.569 255.048 162.004C252.951 158.229 251.902 154.14 251.902 149.736C251.902 145.332 252.951 141.347 255.048 137.782C257.145 134.007 259.976 131.071 263.541 128.974C267.316 126.877 271.406 125.828 275.81 125.828C280.214 125.828 284.198 126.877 287.763 128.974C291.538 131.071 294.474 134.007 296.571 137.782C298.669 141.347 299.717 145.332 299.717 149.736C299.717 154.14 298.669 158.229 296.571 162.004C294.474 165.569 291.538 168.4 287.763 170.498C284.198 172.595 280.214 173.643 275.81 173.643Z" fill="white"/>
<path d="M212.775 110.729C208.371 110.729 204.281 109.68 200.506 107.583C196.941 105.486 194.11 102.655 192.013 99.0899C189.916 95.3151 188.867 91.2257 188.867 86.8217C188.867 82.4177 189.916 78.4331 192.013 74.8679C194.11 71.0931 196.941 68.1571 200.506 66.06C204.281 63.9628 208.371 62.9143 212.775 62.9143C217.179 62.9143 221.163 63.9628 224.728 66.06C228.503 68.1571 231.439 71.0931 233.536 74.8679C235.634 78.4331 236.682 82.4177 236.682 86.8217C236.682 91.2257 235.634 95.3151 233.536 99.0899C231.439 102.655 228.503 105.486 224.728 107.583C221.163 109.68 217.179 110.729 212.775 110.729ZM212.775 47.8148C208.371 47.8148 204.281 46.7663 200.506 44.6691C196.941 42.572 194.11 39.7408 192.013 36.1757C189.916 32.4008 188.867 28.3114 188.867 23.9074C188.867 19.5034 189.916 15.5188 192.013 11.9537C194.11 8.17884 196.941 5.24285 200.506 3.14571C204.281 1.04857 208.371 0 212.775 0C217.179 0 221.163 1.04857 224.728 3.14571C228.503 5.24285 231.439 8.17884 233.536 11.9537C235.634 15.5188 236.682 19.5034 236.682 23.9074C236.682 28.3114 235.634 32.4008 233.536 36.1757C231.439 39.7408 228.503 42.572 224.728 44.6691C221.163 46.7663 217.179 47.8148 212.775 47.8148ZM212.775 173.643C208.371 173.643 204.281 172.595 200.506 170.498C196.941 168.4 194.11 165.569 192.013 162.004C189.916 158.229 188.867 154.14 188.867 149.736C188.867 145.332 189.916 141.347 192.013 137.782C194.11 134.007 196.941 131.071 200.506 128.974C204.281 126.877 208.371 125.828 212.775 125.828C217.179 125.828 221.163 126.877 224.728 128.974C228.503 131.071 231.439 134.007 233.536 137.782C235.634 141.347 236.682 145.332 236.682 149.736C236.682 154.14 235.634 158.229 233.536 162.004C231.439 165.569 228.503 168.4 224.728 170.498C221.163 172.595 217.179 173.643 212.775 173.643ZM149.861 142.186C145.457 142.186 141.367 141.138 137.592 139.04C134.027 136.943 131.196 134.112 129.099 130.547C127.002 126.772 125.953 122.683 125.953 118.279C125.953 113.875 127.002 109.89 129.099 106.325C131.196 102.55 134.027 99.6142 137.592 97.5171C141.367 95.4199 145.457 94.3714 149.861 94.3714C154.265 94.3714 158.249 95.4199 161.814 97.5171C165.589 99.6142 168.525 102.55 170.622 106.325C172.719 109.89 173.768 113.875 173.768 118.279C173.768 122.683 172.719 126.772 170.622 130.547C168.525 134.112 165.589 136.943 161.814 139.04C158.249 141.138 154.265 142.186 149.861 142.186ZM149.861 110.729C145.457 110.729 141.367 109.68 137.592 107.583C134.027 105.486 131.196 102.655 129.099 99.0899C127.002 95.3151 125.953 91.2257 125.953 86.8217C125.953 82.4177 127.002 78.4331 129.099 74.8679C131.196 71.0931 134.027 68.1571 137.592 66.06C141.367 63.9628 145.457 62.9143 149.861 62.9143C154.265 62.9143 158.249 63.9628 161.814 66.06C165.589 68.1571 168.525 71.0931 170.622 74.8679C172.719 78.4331 173.768 82.4177 173.768 86.8217C173.768 91.2257 172.719 95.3151 170.622 99.0899C168.525 102.655 165.589 105.486 161.814 107.583C158.249 109.68 154.265 110.729 149.861 110.729ZM149.861 79.2719C145.457 79.2719 141.367 78.2234 137.592 76.1262C134.027 74.0291 131.196 71.1979 129.099 67.6328C127.002 63.8579 125.953 59.7685 125.953 55.3645C125.953 50.9605 127.002 46.976 129.099 43.4108C131.196 39.636 134.027 36.7 137.592 34.6028C141.367 32.5057 145.457 31.4571 149.861 31.4571C154.265 31.4571 158.249 32.5057 161.814 34.6028C165.589 36.7 168.525 39.636 170.622 43.4108C172.719 46.976 173.768 50.9605 173.768 55.3645C173.768 59.7685 172.719 63.8579 170.622 67.6328C168.525 71.1979 165.589 74.0291 161.814 76.1262C158.249 78.2234 154.265 79.2719 149.861 79.2719ZM181.318 173.643C176.914 173.643 172.824 172.595 169.049 170.498C165.484 168.4 162.653 165.569 160.556 162.004C158.459 158.229 157.41 154.14 157.41 149.736C157.41 145.332 158.459 141.347 160.556 137.782C162.653 134.007 165.484 131.071 169.049 128.974C172.824 126.877 176.914 125.828 181.318 125.828C185.722 125.828 189.706 126.877 193.271 128.974C197.046 131.071 199.982 134.007 202.079 137.782C204.176 141.347 205.225 145.332 205.225 149.736C205.225 154.14 204.176 158.229 202.079 162.004C199.982 165.569 197.046 168.4 193.271 170.498C189.706 172.595 185.722 173.643 181.318 173.643ZM181.318 47.8148C176.914 47.8148 172.824 46.7663 169.049 44.6691C165.484 42.572 162.653 39.7408 160.556 36.1757C158.459 32.4008 157.41 28.3114 157.41 23.9074C157.41 19.5034 158.459 15.5188 160.556 11.9537C162.653 8.17884 165.484 5.24285 169.049 3.14571C172.824 1.04857 176.914 0 181.318 0C185.722 0 189.706 1.04857 193.271 3.14571C197.046 5.24285 199.982 8.17884 202.079 11.9537C204.176 15.5188 205.225 19.5034 205.225 23.9074C205.225 28.3114 204.176 32.4008 202.079 36.1757C199.982 39.7408 197.046 42.572 193.271 44.6691C189.706 46.7663 185.722 47.8148 181.318 47.8148ZM149.861 173.643C145.457 173.643 141.367 172.595 137.592 170.498C134.027 168.4 131.196 165.569 129.099 162.004C127.002 158.229 125.953 154.14 125.953 149.736C125.953 145.332 127.002 141.347 129.099 137.782C131.196 134.007 134.027 131.071 137.592 128.974C141.367 126.877 145.457 125.828 149.861 125.828C154.265 125.828 158.249 126.877 161.814 128.974C165.589 131.071 168.525 134.007 170.622 137.782C172.719 141.347 173.768 145.332 173.768 149.736C173.768 154.14 172.719 158.229 170.622 162.004C168.525 165.569 165.589 168.4 161.814 170.498C158.249 172.595 154.265 173.643 149.861 173.643ZM149.861 47.8148C145.457 47.8148 141.367 46.7663 137.592 44.6691C134.027 42.572 131.196 39.7408 129.099 36.1757C127.002 32.4008 125.953 28.3114 125.953 23.9074C125.953 19.5034 127.002 15.5188 129.099 11.9537C131.196 8.17884 134.027 5.24285 137.592 3.14571C141.367 1.04857 145.457 0 149.861 0C154.265 0 158.249 1.04857 161.814 3.14571C165.589 5.24285 168.525 8.17884 170.622 11.9537C172.719 15.5188 173.768 19.5034 173.768 23.9074C173.768 28.3114 172.719 32.4008 170.622 36.1757C168.525 39.7408 165.589 42.572 161.814 44.6691C158.249 46.7663 154.265 47.8148 149.861 47.8148ZM181.318 110.729C176.914 110.729 172.824 109.68 169.049 107.583C165.484 105.486 162.653 102.655 160.556 99.0899C158.459 95.3151 157.41 91.2257 157.41 86.8217C157.41 82.4177 158.459 78.4331 160.556 74.8679C162.653 71.0931 165.484 68.1571 169.049 66.06C172.824 63.9628 176.914 62.9143 181.318 62.9143C185.722 62.9143 189.706 63.9628 193.271 66.06C197.046 68.1571 199.982 71.0931 202.079 74.8679C204.176 78.4331 205.225 82.4177 205.225 86.8217C205.225 91.2257 204.176 95.3151 202.079 99.0899C199.982 102.655 197.046 105.486 193.271 107.583C189.706 109.68 185.722 110.729 181.318 110.729Z" fill="white"/>
<path d="M86.8217 173.643C82.4177 173.643 78.3282 172.595 74.5534 170.498C70.9882 168.4 68.1571 165.569 66.06 162.004C63.9628 158.229 62.9142 154.14 62.9142 149.736C62.9142 145.332 63.9628 141.347 66.06 137.782C68.1571 134.007 70.9882 131.071 74.5534 128.974C78.3282 126.877 82.4177 125.828 86.8217 125.828C91.2257 125.828 95.2102 126.877 98.7754 128.974C102.55 131.071 105.486 134.007 107.583 137.782C109.681 141.347 110.729 145.332 110.729 149.736C110.729 154.14 109.681 158.229 107.583 162.004C105.486 165.569 102.55 168.4 98.7754 170.498C95.2102 172.595 91.2257 173.643 86.8217 173.643ZM86.8217 142.186C82.4177 142.186 78.3282 141.138 74.5534 139.04C70.9882 136.943 68.1571 134.112 66.06 130.547C63.9628 126.772 62.9142 122.683 62.9142 118.279C62.9142 113.875 63.9628 109.89 66.06 106.325C68.1571 102.55 70.9882 99.6142 74.5534 97.5171C78.3282 95.4199 82.4177 94.3714 86.8217 94.3714C91.2257 94.3714 95.2102 95.4199 98.7754 97.5171C102.55 99.6142 105.486 102.55 107.583 106.325C109.681 109.89 110.729 113.875 110.729 118.279C110.729 122.683 109.681 126.772 107.583 130.547C105.486 134.112 102.55 136.943 98.7754 139.04C95.2102 141.138 91.2257 142.186 86.8217 142.186ZM86.8217 110.729C82.4177 110.729 78.3282 109.68 74.5534 107.583C70.9882 105.486 68.1571 102.655 66.06 99.0899C63.9628 95.3151 62.9142 91.2257 62.9142 86.8217C62.9142 82.4177 63.9628 78.4331 66.06 74.8679C68.1571 71.0931 70.9882 68.1571 74.5534 66.06C78.3282 63.9628 82.4177 62.9143 86.8217 62.9143C91.2257 62.9143 95.2102 63.9628 98.7754 66.06C102.55 68.1571 105.486 71.0931 107.583 74.8679C109.681 78.4331 110.729 82.4177 110.729 86.8217C110.729 91.2257 109.681 95.3151 107.583 99.0899C105.486 102.655 102.55 105.486 98.7754 107.583C95.2102 109.68 91.2257 110.729 86.8217 110.729ZM86.8217 79.2719C82.4177 79.2719 78.3282 78.2234 74.5534 76.1262C70.9882 74.0291 68.1571 71.1979 66.06 67.6328C63.9628 63.8579 62.9142 59.7685 62.9142 55.3645C62.9142 50.9605 63.9628 46.976 66.06 43.4108C68.1571 39.636 70.9882 36.7 74.5534 34.6028C78.3282 32.5057 82.4177 31.4571 86.8217 31.4571C91.2257 31.4571 95.2102 32.5057 98.7754 34.6028C102.55 36.7 105.486 39.636 107.583 43.4108C109.681 46.976 110.729 50.9605 110.729 55.3645C110.729 59.7685 109.681 63.8579 107.583 67.6328C105.486 71.1979 102.55 74.0291 98.7754 76.1262C95.2102 78.2234 91.2257 79.2719 86.8217 79.2719ZM55.3645 47.8148C50.9605 47.8148 46.8711 46.7663 43.0963 44.6691C39.5311 42.572 36.7 39.7408 34.6028 36.1757C32.5057 32.4008 31.4571 28.3114 31.4571 23.9074C31.4571 19.5034 32.5057 15.5188 34.6028 11.9537C36.7 8.17884 39.5311 5.24285 43.0963 3.14571C46.8711 1.04857 50.9605 0 55.3645 0C59.7685 0 63.7531 1.04857 67.3182 3.14571C71.0931 5.24285 74.0291 8.17884 76.1262 11.9537C78.2234 15.5188 79.272 19.5034 79.272 23.9074C79.272 28.3114 78.2234 32.4008 76.1262 36.1757C74.0291 39.7408 71.0931 42.572 67.3182 44.6691C63.7531 46.7663 59.7685 47.8148 55.3645 47.8148ZM23.9074 47.8148C19.5034 47.8148 15.414 46.7663 11.6391 44.6691C8.074 42.572 5.24285 39.7408 3.14571 36.1757C1.04857 32.4008 0 28.3114 0 23.9074C0 19.5034 1.04857 15.5188 3.14571 11.9537C5.24285 8.17884 8.074 5.24285 11.6391 3.14571C15.414 1.04857 19.5034 0 23.9074 0C28.3114 0 32.296 1.04857 35.8611 3.14571C39.636 5.24285 42.572 8.17884 44.6691 11.9537C46.7663 15.5188 47.8148 19.5034 47.8148 23.9074C47.8148 28.3114 46.7663 32.4008 44.6691 36.1757C42.572 39.7408 39.636 42.572 35.8611 44.6691C32.296 46.7663 28.3114 47.8148 23.9074 47.8148ZM23.9074 79.2719C19.5034 79.2719 15.414 78.2234 11.6391 76.1262C8.074 74.0291 5.24285 71.1979 3.14571 67.6328C1.04857 63.8579 0 59.7685 0 55.3645C0 50.9605 1.04857 46.976 3.14571 43.4108C5.24285 39.636 8.074 36.7 11.6391 34.6028C15.414 32.5057 19.5034 31.4571 23.9074 31.4571C28.3114 31.4571 32.296 32.5057 35.8611 34.6028C39.636 36.7 42.572 39.636 44.6691 43.4108C46.7663 46.976 47.8148 50.9605 47.8148 55.3645C47.8148 59.7685 46.7663 63.8579 44.6691 67.6328C42.572 71.1979 39.636 74.0291 35.8611 76.1262C32.296 78.2234 28.3114 79.2719 23.9074 79.2719ZM23.9074 110.729C19.5034 110.729 15.414 109.68 11.6391 107.583C8.074 105.486 5.24285 102.655 3.14571 99.0899C1.04857 95.3151 0 91.2257 0 86.8217C0 82.4177 1.04857 78.4331 3.14571 74.8679C5.24285 71.0931 8.074 68.1571 11.6391 66.06C15.414 63.9628 19.5034 62.9143 23.9074 62.9143C28.3114 62.9143 32.296 63.9628 35.8611 66.06C39.636 68.1571 42.572 71.0931 44.6691 74.8679C46.7663 78.4331 47.8148 82.4177 47.8148 86.8217C47.8148 91.2257 46.7663 95.3151 44.6691 99.0899C42.572 102.655 39.636 105.486 35.8611 107.583C32.296 109.68 28.3114 110.729 23.9074 110.729ZM23.9074 142.186C19.5034 142.186 15.414 141.138 11.6391 139.04C8.074 136.943 5.24285 134.112 3.14571 130.547C1.04857 126.772 0 122.683 0 118.279C0 113.875 1.04857 109.89 3.14571 106.325C5.24285 102.55 8.074 99.6142 11.6391 97.5171C15.414 95.4199 19.5034 94.3714 23.9074 94.3714C28.3114 94.3714 32.296 95.4199 35.8611 97.5171C39.636 99.6142 42.572 102.55 44.6691 106.325C46.7663 109.89 47.8148 113.875 47.8148 118.279C47.8148 122.683 46.7663 126.772 44.6691 130.547C42.572 134.112 39.636 136.943 35.8611 139.04C32.296 141.138 28.3114 142.186 23.9074 142.186ZM23.9074 173.643C19.5034 173.643 15.414 172.595 11.6391 170.498C8.074 168.4 5.24285 165.569 3.14571 162.004C1.04857 158.229 0 154.14 0 149.736C0 145.332 1.04857 141.347 3.14571 137.782C5.24285 134.007 8.074 131.071 11.6391 128.974C15.414 126.877 19.5034 125.828 23.9074 125.828C28.3114 125.828 32.296 126.877 35.8611 128.974C39.636 131.071 42.572 134.007 44.6691 137.782C46.7663 141.347 47.8148 145.332 47.8148 149.736C47.8148 154.14 46.7663 158.229 44.6691 162.004C42.572 165.569 39.636 168.4 35.8611 170.498C32.296 172.595 28.3114 173.643 23.9074 173.643Z" fill="white"/>
</svg>
